<svg id="apprenant" xmlns="http://www.w3.org/2000/svg" width="150" height="150" viewBox="0 0 178.68 178.68"><defs><style>.cls-1{fill:#fff;stroke:#203359;stroke-width:3px;}.cls-1,.cls-3,.cls-5,.cls-7{stroke-miterlimit:10;}.cls-2{fill:#7e4e24;}.cls-3,.cls-4,.cls-7{fill:#d9a33e;}.cls-3{stroke:#d9a33e;}.cls-5,.cls-9{fill:#dacb9d;}.cls-5,.cls-7{stroke:#1d1d1b;}.cls-6{fill:#c99d66;}.cls-7{stroke-width:0.5px;}.cls-8{fill:#1d1d1b;}.cls-10{fill:#eb5959;opacity:0.51;}</style></defs><rect class="cls-1" x="1.5" y="1.5" width="175.68" height="175.68" rx="12"/><path class="cls-2" d="M376.71,191.68c-3-4.79,4.46-17.72,9.6-18.31,11.33-1.31,30-4.6,41.43,13.95,7,11.35-2.95,16.37,3.92,31.4,7.94,17.37,23.71,16.32,27.69,33.36,1.75,7.47,1.09,17.79-4.14,20.94-3.63,2.18-1.45-.55-2.18,1.09-1.15,2.57,8.87,3.63,5.67,8.28-1.12,1.63-78.74,46-96.38,14.39-7.94-14.25-32.76-33.32-21.59-41.86,10.95-8.37,16.58-5.53,19.85-12.65,2.25-4.92,5.73-4.64,2-19.84-1.67-6.72-4.26-17.16.87-23.12C369.1,192.71,379.92,196.73,376.71,191.68Z" transform="translate(-311.12 -164.93)"/><path class="cls-3" d="M449.15,266.59a16.24,16.24,0,1,1-32.47,0c0-9.25,6.86-11.49,15.83-11.49S449.15,257.34,449.15,266.59Z" transform="translate(-311.12 -164.93)"/><path class="cls-3" d="M367.1,276.94h0Z" transform="translate(-311.12 -164.93)"/><path class="cls-3" d="M377.27,266.14a16.06,16.06,0,1,1-32.11,0c0-9.14,8-12.62,16.84-12.62S377.27,257,377.27,266.14Z" transform="translate(-311.12 -164.93)"/><path class="cls-3" d="M426.85,255.62c-31.51,9.05-60.12-1.7-60.12-1.7l1.53,38.24,65.44-8.83Z" transform="translate(-311.12 -164.93)"/><polyline class="cls-3" points="34.79 106.51 61.68 172.1 114.23 172.1 135.92 109.96"/><path class="cls-4" d="M375.7,263.51a61.13,61.13,0,0,1,9.84,8.7" transform="translate(-311.12 -164.93)"/><path class="cls-4" d="M374.44,265.67c.43.31.87.62,1.29.94l.36.27.09.07.17.13.28.22c.86.68,1.7,1.39,2.52,2.12a60.23,60.23,0,0,1,4.62,4.56,2.53,2.53,0,0,0,3.54,0,2.56,2.56,0,0,0,0-3.54A64.34,64.34,0,0,0,377,261.36a2.51,2.51,0,0,0-3.42.89,2.57,2.57,0,0,0,.9,3.42Z" transform="translate(-311.12 -164.93)"/><path class="cls-4" d="M424.78,274.9a93.24,93.24,0,0,1-35.58,5.5,17.65,17.65,0,0,1-5.41-.86,35.13,35.13,0,0,1-4.44-2.38,22.2,22.2,0,0,0-13.25-2.6" transform="translate(-311.12 -164.93)"/><path class="cls-4" d="M421.45,262.85a95.65,95.65,0,0,1-19.16,4.72l3.32-.45a75.88,75.88,0,0,1-19.16.56l3.33.45a13.53,13.53,0,0,1-3.06-.8l3,1.26c-1.42-.63-2.7-1.48-4-2.23a38.3,38.3,0,0,0-7.14-3A39.76,39.76,0,0,0,371,262a22.39,22.39,0,0,0-4.91,0,13.95,13.95,0,0,0-8.84,3.66,12.51,12.51,0,0,0,0,17.68c2.29,2.1,5.61,4,8.84,3.66a24,24,0,0,1,5.55.05l-3.33-.44a23.55,23.55,0,0,1,5.77,1.6l-3-1.26c1.82.8,3.44,1.94,5.22,2.82a28.63,28.63,0,0,0,11,2.95,75.77,75.77,0,0,0,12.87-.08A106.44,106.44,0,0,0,428.1,287a13.4,13.4,0,0,0,7.47-5.74,12.76,12.76,0,0,0,1.26-9.63,12.61,12.61,0,0,0-5.74-7.47c-2.85-1.51-6.49-2.4-9.64-1.26Z" transform="translate(-311.12 -164.93)"/><polygon class="cls-5" points="83.67 165.79 38.57 156.73 30.5 90.07 83.67 98.69 83.67 165.79"/><polygon class="cls-5" points="131.53 156.14 86.04 165.57 86.04 98.46 140.4 87.8 131.53 156.14"/><ellipse class="cls-6" cx="35.08" cy="123.7" rx="7.24" ry="9.6"/><ellipse class="cls-6" cx="134.04" cy="122.81" rx="7.24" ry="9.6"/><rect class="cls-7" x="81.7" y="98.04" width="6.7" height="68.14"/><path class="cls-2" d="M377.36,271.2s-4.29,9.16-2.22,14.18c1.58,3.82-3.62,4.39-6.18,4.45a2.73,2.73,0,0,1-2.5-1.49,2.21,2.21,0,0,1,.85-3.11,5.92,5.92,0,0,1,5.47-.74s.29-14,2.51-13.88S377.36,271.2,377.36,271.2Z" transform="translate(-311.12 -164.93)"/><path class="cls-2" d="M430.9,268.89s-4.28,9.16-2.22,14.18c1.58,3.82-3.61,4.39-6.18,4.45A2.74,2.74,0,0,1,420,286a2.21,2.21,0,0,1,.86-3.11,5.9,5.9,0,0,1,5.46-.74s.3-14,2.51-13.88S430.9,268.89,430.9,268.89Z" transform="translate(-311.12 -164.93)"/><ellipse class="cls-6" cx="87.18" cy="50.52" rx="23.11" ry="25.6"/><path class="cls-8" d="M403.42,214.8a10.9,10.9,0,0,1,3.51-4.17,3.62,3.62,0,0,1,1.46-.6l.3-.06c-.33.06.08,0,.15,0,.22,0,.44,0,.65,0l.28,0c-.4,0-.06,0,0,0l.44.1a6.58,6.58,0,0,1,.89.28,6.47,6.47,0,0,1,3.29,3.83c.47,1.53,2.89.88,2.41-.67a8.8,8.8,0,0,0-6-5.86,6.75,6.75,0,0,0-5.62,1.07,14.13,14.13,0,0,0-4,4.79,1.25,1.25,0,0,0,2.16,1.26Z" transform="translate(-311.12 -164.93)"/><path class="cls-8" d="M396,213.62c-1.43-2.58-3.6-5.44-6.72-6a7.22,7.22,0,0,0-5.3,1.19,9.56,9.56,0,0,0-3.56,4.79c-.47,1.54,1.95,2.2,2.42.67a6.47,6.47,0,0,1,3.29-3.83,6.58,6.58,0,0,1,.89-.28l.44-.1c.09,0,.43-.05,0,0l.28,0h.65l.22,0,.23,0a3.66,3.66,0,0,1,1.46.61,10.9,10.9,0,0,1,3.51,4.17,1.25,1.25,0,0,0,2.16-1.26Z" transform="translate(-311.12 -164.93)"/><path class="cls-9" d="M411.3,229.48c0,4.41-8,9.46-12.41,9.46s-12.11-4.61-12.11-9,7.41-1.19,11.81-1.19S411.3,225.08,411.3,229.48Z" transform="translate(-311.12 -164.93)"/><path class="cls-2" d="M373.22,197.79s2.3,7.58,10,8.28c9.6.88,11.42,1,15.7-2.18,6.54-4.79,8.29-20.93,7.85-23.55S373.22,197.79,373.22,197.79Z" transform="translate(-311.12 -164.93)"/><ellipse class="cls-10" cx="100.26" cy="56.41" rx="5.45" ry="2.18"/><ellipse class="cls-10" cx="75.84" cy="57.06" rx="5.45" ry="2.18"/></svg>