<svg id="Calque_1" data-name="Calque 1" xmlns="http://www.w3.org/2000/svg" width="200" height="200" viewBox="0 0 297.06 217.4"><defs><style>.cls-1{fill:#203359;}.cls-2{fill:#d9a23d;}.cls-3{fill:#fff;}.cls-4{fill:#f25252;}</style></defs><rect class="cls-1" x="34.9" y="34.97" width="262.16" height="182.43" rx="12"/><path class="cls-2" d="M343.57,255.08c-1.56-5.32-3.2-8.71-5.11-10.34s-4.09-1.5-6,.58c-3.39,1.35-6.47,4.66-8.81,10.81-3-6.66-6.1-8.7-2.21-1.26-11-8.43-15.11-7.38-14.21,7.87-8.13-13.4-11.28-12.59-15,2.89-.76-14.33-2.12-14-5.42-.15.61-13.14-2.12-13.62-11.19-2.6,4.61-13.65,2.88-15.82-10.53-6,12.72-12.55,11.89-15.78-8.08-8.39,18.31-13.86,17.48-17.1-6-12.48,22.83-7.31,23.3-10-1-17.23,26.91,2.73,29.07,1,6.44-15.94,25.33,16.25,26.68,15.91,5.78-6.66,25.18,21.38,28.1,20.55,25.74-10.5,9.58,29.2,13.88,28.18,24.34,6.91-6.92,16.18-7.68,12.11-12.22-5.82,5.14,13.51,10.45,15.35,18.94,10.31-.25,6.68,2.69,6.49,5.9,3.74.55-.22,1.37-3,1.27-7.36s-1.14-10.31-3-18.12c10,30.55,12.71,31,27.28.55-10.11,33.11-8.38,35.27,21.85,19.47-29.54,18.49-28.71,21.73,3.82,26.4-30.87,1.79-30,5-7.64,17.23-21.71-9.51-22.18-6.78-11.41,10.45C343.74,236.71,341.58,238.44,343.57,255.08Z" transform="translate(-250.02 -175.38)"/><path class="cls-3" d="M284.61,242.63l-4.34-16.9,2.38-.61,7.61,7.16a49.57,49.57,0,0,1,4.45,4.71l0,0c-.78-2.21-1.36-4.25-2-6.89L290.9,223l2.06-.53,4.34,16.91-2.21.56-7.57-7.2a55.74,55.74,0,0,1-4.61-4.83l-.07,0c.68,2.1,1.25,4.12,2,6.93l1.85,7.23Z" transform="translate(-250.02 -175.38)"/><path class="cls-3" d="M307.83,228.22l-6.57,1.69,1.56,6.1,7.32-1.88.47,1.83-9.5,2.44-4.34-16.91,9.13-2.34.47,1.83-6.95,1.78,1.37,5.35,6.57-1.69Z" transform="translate(-250.02 -175.38)"/><path class="cls-3" d="M316.43,234.46l-8.63-15.8,2.31-.59,4.2,8c1,2,2,4,2.76,5.53l.05,0c-.16-1.75-.15-3.89-.13-6.22l.07-9.11,2.28-.58,4.26,8.05c1,1.88,2,3.77,2.67,5.49h0c-.12-1.95-.13-3.95-.14-6.2l0-9.1,2.23-.57L328,231.5l-2.28.58-4.39-8.26a51.4,51.4,0,0,1-2.52-5.23h-.05a54,54,0,0,1,.11,5.86l-.15,9.42Z" transform="translate(-250.02 -175.38)"/><path class="cls-3" d="M339.08,223.46l-3.44-12,2.41-.62L340.79,223Zm.3,3.75a1.53,1.53,0,1,1,1.88,1.17A1.51,1.51,0,0,1,339.38,227.21Z" transform="translate(-250.02 -175.38)"/><path class="cls-4" d="M314,298.77v-33h4.65l10.56,16.68a95,95,0,0,1,5.92,10.71l.09-.05c-.39-4.4-.48-8.41-.48-13.55V265.81h4v33h-4.31L324,282.05a106,106,0,0,1-6.17-11l-.14.05c.24,4.15.34,8.11.34,13.59v14.08Z" transform="translate(-250.02 -175.38)"/><path class="cls-4" d="M350.45,265.81v33H346.2v-33Z" transform="translate(-250.02 -175.38)"/><path class="cls-4" d="M365.12,298.77l-10.76-33H359l5.13,16.24c1.42,4.45,2.64,8.46,3.53,12.32h.09c.93-3.81,2.3-8,3.77-12.27l5.57-16.29h4.55l-11.78,33Z" transform="translate(-250.02 -175.38)"/><path class="cls-4" d="M402.24,283.32H389.42v11.89h14.29v3.56H385.17v-33H403v3.57H389.42V279.8h12.82Z" transform="translate(-250.02 -175.38)"/><path class="cls-4" d="M414.56,288.41l-3.42,10.36h-4.41l11.2-33h5.14l11.25,33h-4.55l-3.52-10.36Zm10.81-3.33-3.23-9.49c-.73-2.15-1.22-4.1-1.71-6h-.1c-.49,2-1,4-1.66,6l-3.23,9.53Z" transform="translate(-250.02 -175.38)"/><path class="cls-4" d="M442,265.81v19.52c0,7.38,3.28,10.51,7.68,10.51,4.89,0,8-3.23,8-10.51V265.81H462V285c0,10.13-5.33,14.28-12.47,14.28-6.75,0-11.83-3.86-11.83-14.08V265.81Z" transform="translate(-250.02 -175.38)"/><path class="cls-4" d="M491.58,298.77v-8.65H476.81v-2.84L491,267h4.65v19.75h4.45v3.38h-4.45v8.65Zm0-12V276.13c0-1.66.05-3.32.14-5h-.14c-1,1.86-1.76,3.23-2.64,4.7l-7.78,10.81v.09Z" transform="translate(-250.02 -175.38)"/><path class="cls-4" d="M516.66,298.77v-8.65H501.89v-2.84L516.08,267h4.64v19.75h4.45v3.38h-4.45v8.65Zm0-12V276.13c0-1.66.05-3.32.15-5h-.15c-1,1.86-1.76,3.23-2.64,4.7l-7.77,10.81v.09Z" transform="translate(-250.02 -175.38)"/><polygon points="106.47 181.84 96.4 176.44 86.25 181.68 88.27 170.44 80.15 162.39 91.47 160.84 96.61 150.64 101.58 160.92 112.88 162.66 104.63 170.57 106.47 181.84"/><polygon points="140.77 181.84 130.7 176.44 120.55 181.68 122.57 170.44 114.45 162.39 125.77 160.84 130.91 150.64 135.88 160.92 147.18 162.66 138.93 170.57 140.77 181.84"/><polygon points="175.16 181.84 165.1 176.44 154.94 181.68 156.96 170.44 148.85 162.39 160.16 160.84 165.3 150.64 170.28 160.92 181.57 162.66 173.32 170.57 175.16 181.84"/><polygon points="209.62 181.84 199.55 176.44 189.39 181.68 191.41 170.44 183.3 162.39 194.62 160.84 199.75 150.64 204.73 160.92 216.02 162.66 207.78 170.57 209.62 181.84"/><polygon points="244.28 181.84 234.21 176.44 224.06 181.68 226.08 170.44 217.96 162.39 229.28 160.84 234.42 150.64 239.4 160.92 250.69 162.66 242.44 170.57 244.28 181.84"/></svg>