<svg xmlns="http://www.w3.org/2000/svg" viewBox="0 0 408.52 282.34"><defs><style>.cls-1{fill:#d9a33e;}.cls-2{fill:#213359;}.cls-3{font-size:46px;fill:#fff;font-family:Nunito-Regular, Nunito;}.cls-4{letter-spacing:-0.06em;}.cls-5{letter-spacing:-0.04em;}.cls-6{letter-spacing:0em;}.cls-7{letter-spacing:-0.02em;}.cls-8{letter-spacing:0em;}.cls-9{letter-spacing:-0.01em;}.cls-10{letter-spacing:-0.01em;}</style></defs><g id="Calque_2" data-name="Calque 2"><g id="Calque_1-2" data-name="Calque 1"><path class="cls-1" d="M267.45,15.68a133.68,133.68,0,0,1,51.11,4.71,126.54,126.54,0,0,1,45.75,24.06A115.77,115.77,0,0,1,396.42,86a131.88,131.88,0,0,1,3.93,100.89,120.88,120.88,0,0,1-28.11,44.18A119.23,119.23,0,0,1,335,256.42,132.32,132.32,0,0,1,291.76,267a136.36,136.36,0,0,1-44.64-4.25,124.58,124.58,0,0,1-40.94-19.19,114,114,0,0,1-33.25-36.41,128.2,128.2,0,0,1-16.05-46.1,135.48,135.48,0,0,1,1.82-49,123.16,123.16,0,0,1,20.11-45.33,117.4,117.4,0,0,1,38.68-35.22A125.34,125.34,0,0,1,267.45,15.68Zm-73,79.67a31.15,31.15,0,0,0-3.53,4.38,82.72,82.72,0,0,0-10.72,55.84,101.27,101.27,0,0,0,17.45,41.2l.24-.26-.24.26-.06-1.49q-2.06-7.11-4.34-14c-1.52-4.57-2.89-9.15-4.08-13.73q-1.86-8.35-3-16.75a74.17,74.17,0,0,1-.26-17.13A144.08,144.08,0,0,1,194.47,95.35Zm16.66,11.93-3.23,5.61a65.22,65.22,0,0,0-3,5.84q-9.87,24.27,1.68,49.59,1.63,3.41,3.38,6.43c1.17,2,2.37,4.07,3.63,6.17l.23-.26a19.72,19.72,0,0,1-.87-2.94,15.31,15.31,0,0,0-1.13-3.18q-2.31-7.33-4.11-14.47a86.3,86.3,0,0,1-2.39-14.79,80.7,80.7,0,0,1,1.19-18.18,152.6,152.6,0,0,1,4.21-17.31,4.36,4.36,0,0,0,.19-1.25A3.8,3.8,0,0,1,211.13,107.28Zm17.25,13.9L227,122.73a36.88,36.88,0,0,0-5.46,20,46.31,46.31,0,0,0,5.47,20,8.55,8.55,0,0,0,1.35,2.42,14.56,14.56,0,0,1,1.61,2.66,16.93,16.93,0,0,0-1.21-4.91,94,94,0,0,1-3.68-16,44.58,44.58,0,0,1,.78-16.17c.43-1.51.85-3.1,1.28-4.78S228,122.69,228.38,121.18ZM323,139.38a41.73,41.73,0,0,0-3.8-15.85A39.61,39.61,0,0,0,310,110.77a43.13,43.13,0,0,0-13.52-8.34,39.21,39.21,0,0,0-16.13-2.65,40.82,40.82,0,0,0-16.22,3.94,41.69,41.69,0,0,0-12.62,9.37,43,43,0,0,0-8.35,13.52,39.06,39.06,0,0,0-2.64,16.14,36.78,36.78,0,0,0,3.81,16.09,42.91,42.91,0,0,0,9.49,12.75,41.71,41.71,0,0,0,13.4,8.22,43.05,43.05,0,0,0,16.26,2.77,39.21,39.21,0,0,0,15.84-4.05A43.07,43.07,0,0,0,312,169a41.87,41.87,0,0,0,8.23-13.39A43.28,43.28,0,0,0,323,139.38Zm-23.79,1A17.61,17.61,0,1,1,264.05,142a18.23,18.23,0,0,1,16.82-18.36,17.37,17.37,0,0,1,18.37,16.82Zm38.63,20.16a31.83,31.83,0,0,0,5.67-12.17,43.05,43.05,0,0,0,.92-12.95,41.83,41.83,0,0,0-2.76-12.05,35.27,35.27,0,0,0-5.64-9.68,4.36,4.36,0,0,1,.29,1,3.66,3.66,0,0,0,.29,1,79.35,79.35,0,0,0,2.25,8.71,85.06,85.06,0,0,1,2.24,8.72,42.72,42.72,0,0,1,.18,12.53,76.33,76.33,0,0,1-2.8,12.66Zm14.26-59.73A125.41,125.41,0,0,1,360.92,137q1.53,18.06-6.09,36.77a54.36,54.36,0,0,0,8.55-17.39,58,58,0,0,0,2.14-19.21A65.19,65.19,0,0,0,361.45,118,67.58,67.58,0,0,0,352.13,100.85Zm15.92-16.34A68.11,68.11,0,0,1,370.74,92q1,3.56,2.42,7.22,2.37,8.84,4.36,17.31a113.16,113.16,0,0,1,2.64,17.64,93.51,93.51,0,0,1-.54,18.77,168.87,168.87,0,0,1-3.54,18.41q-1.08,3.77-2,7.41t-1.8,7.15A66.89,66.89,0,0,0,383.66,163a84.77,84.77,0,0,0,3.19-26.34,88.74,88.74,0,0,0-5.28-27A98,98,0,0,0,368.05,84.51Z"/><rect class="cls-2" width="282.34" height="282.34" rx="9.69"/><text class="cls-3" transform="translate(77.78 128.93)"><tspan class="cls-4">L</tspan><tspan class="cls-5" x="22.13" y="0">’</tspan><tspan class="cls-6" x="30.87" y="0">o</tspan><tspan class="cls-7" x="56.21" y="0">f</tspan><tspan class="cls-8" x="70.79" y="0">f</tspan><tspan class="cls-9" x="86.11" y="0">r</tspan><tspan x="102.3" y="0">e</tspan><tspan class="cls-10" x="-39.17" y="55.2">F</tspan><tspan class="cls-9" x="-14.42" y="55.2">r</tspan><tspan x="1.77" y="55.2">eemium</tspan></text></g></g></svg>