<?xml version="1.0" encoding="utf-8"?>
<!-- Generator: Adobe Illustrator 25.2.1, SVG Export Plug-In . SVG Version: 6.00 Build 0)  -->
<svg version="1.1" id="Calque_1" xmlns="http://www.w3.org/2000/svg" xmlns:xlink="http://www.w3.org/1999/xlink" width="100%" height="100%"
	 viewBox="0 0 568.66 282.34" style="enable-background:new 0 0 568.66 282.34;" xml:space="preserve">
<style type="text/css">
	.st0{fill:#D9A33E;}
	.st1{fill:#213359;}
	.st2{fill:#FFFFFF;}
	.st3{font-family:'MyriadPro-Regular';}
	.st4{font-size:13.6125px;}
	.st5{font-size:12px;}
	.st6{font-family:'Nunito-Regular';}
	.st7{font-size:38.7547px;}
</style>
<path id="anim-jac" class="st0" d="M160.52,15.58c17.13-1.74,34.17-0.17,51.11,4.71c16.93,4.89,32.18,12.91,45.75,24.06
	c14.08,11.63,24.78,25.48,32.11,41.55c7.32,16.07,11.32,32.73,12,50c0.67,17.26-2.02,34.23-8.07,50.88
	c-6.06,16.65-15.43,31.38-28.11,44.19c-10.94,10.91-23.36,19.36-37.25,25.35c-13.9,5.99-28.3,9.52-43.24,10.59
	c-14.94,1.07-29.81-0.35-44.63-4.25c-14.82-3.9-28.47-10.3-40.94-19.19c-13.84-9.82-24.92-21.96-33.25-36.41
	c-8.33-14.45-13.68-29.82-16.05-46.1c-2.38-16.28-1.76-32.61,1.82-49c3.58-16.38,10.29-31.49,20.11-45.33
	c10.28-14.68,23.17-26.43,38.68-35.22C126.07,22.63,142.72,17.35,160.52,15.58z M87.54,95.25c-1.74,1.9-2.92,3.36-3.53,4.38
	c-10.16,17.33-13.74,35.94-10.71,55.84c2.64,14.78,8.45,28.51,17.45,41.2l0.24-0.26l-0.24,0.26l-0.07-1.49
	c-1.37-4.74-2.81-9.39-4.34-13.96c-1.53-4.57-2.89-9.14-4.08-13.73c-1.24-5.57-2.23-11.16-2.97-16.75
	c-0.75-5.6-0.83-11.3-0.26-17.12C80.26,119.82,83.09,107.04,87.54,95.25z M104.2,107.18c-1.08,1.87-2.16,3.73-3.23,5.61
	c-1.08,1.87-2.07,3.82-2.97,5.84c-6.58,16.18-6.02,32.71,1.68,49.59c1.09,2.27,2.22,4.41,3.38,6.43c1.16,2.02,2.37,4.07,3.62,6.17
	l0.24-0.26c-0.38-0.98-0.67-1.96-0.87-2.94c-0.21-0.98-0.59-2.04-1.13-3.18c-1.54-4.9-2.91-9.72-4.11-14.47
	c-1.2-4.74-2-9.68-2.39-14.79c-0.28-6.28,0.12-12.33,1.19-18.18c1.07-5.84,2.47-11.61,4.21-17.32c0.14-0.5,0.2-0.92,0.19-1.25
	C103.99,108.1,104.05,107.69,104.2,107.18z M121.45,121.08l-1.42,1.55c-3.85,6.63-5.67,13.28-5.46,19.98
	c0.21,6.7,2.03,13.36,5.47,20c0.37,0.98,0.82,1.78,1.35,2.42c0.52,0.64,1.06,1.53,1.61,2.66c-0.06-1.32-0.46-2.96-1.21-4.91
	c-1.73-5.39-2.96-10.71-3.68-15.98c-0.73-5.26-0.47-10.66,0.78-16.17c0.43-1.51,0.85-3.1,1.28-4.77
	C120.59,124.18,121.02,122.59,121.45,121.08z M216.1,139.27c-0.25-5.62-1.51-10.9-3.8-15.85c-2.29-4.95-5.37-9.2-9.25-12.75
	c-3.88-3.56-8.39-6.34-13.53-8.35c-5.14-2.01-10.52-2.89-16.13-2.64c-5.95,0.26-11.36,1.57-16.22,3.94
	c-4.87,2.37-9.07,5.49-12.62,9.37c-3.55,3.88-6.34,8.39-8.35,13.53c-2.01,5.14-2.89,10.51-2.64,16.13
	c0.09,5.79,1.36,11.16,3.81,16.1c2.45,4.94,5.62,9.19,9.5,12.74c3.88,3.55,8.34,6.29,13.39,8.23c5.05,1.93,10.47,2.85,16.26,2.76
	c5.62-0.25,10.89-1.6,15.84-4.05c4.93-2.45,9.19-5.62,12.74-9.5s6.29-8.35,8.23-13.39C215.27,150.48,216.19,145.06,216.1,139.27z
	 M192.31,140.32c0.22,4.96-1.3,9.2-4.53,12.74c-3.24,3.54-7.33,5.41-12.29,5.63s-9.21-1.3-12.74-4.53
	c-3.54-3.24-5.41-7.34-5.63-12.29c-0.05-4.8,1.55-8.97,4.79-12.5c3.24-3.53,7.25-5.49,12.03-5.87c4.96-0.22,9.2,1.29,12.74,4.53
	C190.22,131.26,192.1,135.36,192.31,140.32z M230.94,160.47c2.81-3.77,4.7-7.82,5.67-12.17c0.97-4.35,1.27-8.66,0.92-12.95
	c-0.35-4.29-1.28-8.31-2.76-12.05c-1.49-3.74-3.37-6.97-5.64-9.68c0.18,0.49,0.28,0.81,0.29,0.98c0,0.17,0.1,0.49,0.29,0.98
	c0.63,3.12,1.38,6.02,2.24,8.72c0.86,2.69,1.61,5.6,2.24,8.72c0.67,4.11,0.74,8.29,0.18,12.53c-0.56,4.25-1.49,8.47-2.8,12.66
	L230.94,160.47z M245.2,100.75c4.83,12.04,7.76,24.08,8.78,36.11c1.02,12.04-1.01,24.29-6.08,36.77c3.9-5.3,6.75-11.1,8.55-17.38
	c1.79-6.29,2.5-12.69,2.14-19.21c-0.37-6.52-1.73-12.92-4.07-19.19C252.17,111.58,249.07,105.88,245.2,100.75z M261.12,84.41
	c1.1,2.6,2,5.09,2.69,7.46c0.68,2.37,1.49,4.78,2.43,7.22c1.58,5.89,3.03,11.66,4.36,17.31c1.32,5.65,2.2,11.53,2.64,17.64
	c0.45,6.44,0.27,12.69-0.54,18.77c-0.81,6.08-1.99,12.21-3.54,18.41c-0.72,2.51-1.4,4.98-2.03,7.41c-0.64,2.43-1.24,4.81-1.8,7.15
	c5.17-6.68,8.97-14.3,11.41-22.85c2.43-8.55,3.5-17.33,3.19-26.34c-0.31-9.01-2.07-17.99-5.28-26.96
	C271.44,100.68,266.93,92.27,261.12,84.41z"/>
<g>
	<path class="st1" d="M272.65,282.34H9.69C4.34,282.34,0,278,0,272.65V9.69C0,4.34,4.34,0,9.69,0h262.95c5.35,0,9.69,4.34,9.69,9.69
		v262.95C282.34,278,278,282.34,272.65,282.34z"/>
	<text transform="matrix(1 0 0 1 51.1863 84.4121)" class="st2 st3 st4">60 euros à l&apos;année, soit 5 €/mois</text>
	<text transform="matrix(1 0 0 1 27.9727 121.0773)"><tspan x="0" y="0" class="st2 st3 st5">Possibilité de créer des sous-comptes pour les </tspan><tspan x="60.51" y="14.4" class="st2 st3 st5">membres de la famille</tspan></text>
	<text transform="matrix(1 0 0 1 77.379 174.0696)" class="st2 st3 st5">Tout illimité , pas de pubs</text>
	<text transform="matrix(1 0 0 1 73.221 211.592)" class="st2 st3 st5">Seuls les skins sont payants</text>
	<text transform="matrix(1 0 0 1 75.6209 254.2751)" class="st2 st3 st5">Possibilité de payer par CE</text>
	<text transform="matrix(1 0 0 1 12.4093 46.8884)" class="st2 st6 st7">L’offre Abonné</text>
</g>
</svg>
