<svg id="apprenant" xmlns="http://www.w3.org/2000/svg" width="150" height="150" viewBox="0 0 181.05 201.24"><defs><style>.cls-1{fill:#ebf3fc;stroke:#213359;stroke-width:9px;}.cls-1,.cls-11,.cls-12,.cls-4{stroke-miterlimit:10;}.cls-2{fill:#d9a43f;}.cls-3{fill:#dbcb9c;}.cls-4,.cls-5{fill:#8bbfe9;}.cls-4{stroke:#8bbfe9;}.cls-12,.cls-6{fill:#ea5655;}.cls-7{fill:#936036;}.cls-8{fill:#936037;}.cls-9{fill:#1d1d1c;}.cls-10{fill:#dba745;}.cls-11{fill:#213359;stroke-width:0.5px;}.cls-11,.cls-12{stroke:#1d1d1b;}</style></defs><g id="Calque_2" data-name="Calque 2"><g id="Calque_1-2" data-name="Calque 1"><rect class="cls-1" x="4.5" y="4.5" width="172.05" height="188.78" rx="19.11"/><path class="cls-2" d="M80.86,32.49a41,41,0,0,0,22.2-1.6l.65.2s-4.2,8.3-8.2,8.1S80.31,35,80.26,34.09a3.53,3.53,0,0,1,0-1.2S80.26,32.74,80.86,32.49Z"/><ellipse class="cls-3" cx="93.36" cy="69.19" rx="23.47" ry="26"/><path class="cls-4" d="M148.12,116.36a16.5,16.5,0,1,1-33,0c0-9.39,7-11.67,16.08-11.67S148.12,107,148.12,116.36Z"/><path class="cls-4" d="M64.79,126.87h0Z"/><path class="cls-4" d="M75.11,115.9a16.31,16.31,0,1,1-32.6,0c0-9.28,8.1-12.81,17.1-12.81S75.11,106.62,75.11,115.9Z"/><path class="cls-4" d="M125.47,105.22c-32,9.2-61.06-1.73-61.06-1.73L66,142.32l66.46-8.95Z"/><polyline class="cls-4" points="43.27 121.29 70.58 187.89 123.95 187.89 145.98 124.8"/><path class="cls-5" d="M73.53,113.24a62,62,0,0,1,10,8.83"/><path class="cls-5" d="M72.26,115.4l1.31.95.36.27c.06,0,.38.29.11.08l.17.14.29.22c.87.69,1.72,1.41,2.55,2.14a60.52,60.52,0,0,1,4.7,4.64,2.54,2.54,0,0,0,3.54,0,2.56,2.56,0,0,0,0-3.54,65.77,65.77,0,0,0-10.5-9.22,2.5,2.5,0,0,0-3.42.9,2.57,2.57,0,0,0,.89,3.42Z"/><path class="cls-5" d="M123.36,124.8a94.51,94.51,0,0,1-36.13,5.58,17.56,17.56,0,0,1-5.49-.87,33.79,33.79,0,0,1-4.51-2.42,22.63,22.63,0,0,0-13.46-2.64"/><path class="cls-5" d="M120,112.75a97.15,97.15,0,0,1-19.88,4.85l3.32-.45a76.34,76.34,0,0,1-19,.51l3.33.45a13.74,13.74,0,0,1-3.1-.81l3,1.26c-1.44-.64-2.74-1.51-4.11-2.26a39,39,0,0,0-7.2-3,40.5,40.5,0,0,0-7.58-1.32,23.12,23.12,0,0,0-5,0A9.51,9.51,0,0,0,59,113a9.31,9.31,0,0,0-4,2.59,12.49,12.49,0,0,0,0,17.67c2.29,2.1,5.61,4,8.84,3.66a24.18,24.18,0,0,1,5.64.06l-3.33-.45a24.3,24.3,0,0,1,5.86,1.63l-3-1.26c1.85.81,3.5,2,5.3,2.86a29.46,29.46,0,0,0,11.58,3,83.88,83.88,0,0,0,12.78-.14,108.58,108.58,0,0,0,28.07-5.82,13.42,13.42,0,0,0,7.47-5.74,12.81,12.81,0,0,0,1.26-9.63,12.62,12.62,0,0,0-5.75-7.47c-2.84-1.51-6.49-2.39-9.63-1.26Z"/><polygon class="cls-6" points="92.56 102.79 78.02 109.19 78.02 96.39 92.56 102.5 92.56 102.79"/><polygon class="cls-6" points="94.79 102.74 109.34 109.14 109.34 96.34 94.79 102.45 94.79 102.74"/><path class="cls-3" d="M80.31,32.89l-5.1,19.5,36-1.2-7.51-20.1S94.41,40.09,80.31,32.89Z"/><path class="cls-2" d="M80.17,38.29,77.84,48.53s10.57,2.14,10.8-3.22S80.17,38.29,80.17,38.29Z"/><path class="cls-2" d="M103.86,37.34l3.66,9.84s-10.2,3.51-11.14-1.77S103.86,37.34,103.86,37.34Z"/><path class="cls-7" d="M116.92,66.14s-.6,2,.75,1.9c4.41-.33,14.69-3.75,9-10-4.38-4.72-14.88-7.1-22.88-8.26A60.28,60.28,0,0,0,85.26,50c-9.1,1.52-22.81,4.35-26.15,8.07-5.1,5.7,11,10.5,11,10.5l.15-.3c.2-1.4.5-2.1-.2-2.35-3.07-1.1-5.56-4-1-4.85,6.39-1.16,16.09-5.31,23.55-4.86.47,0,.94.05,1.41.05C100.68,56.28,127.91,58.33,116.92,66.14Z"/><path class="cls-8" d="M70.91,63.17c0,.94-.3,2.67-.4,3.7s-1.84-.48-2.7-.48c-1.6,0-2.9-1.63-2.9-3.65s1.3-3.65,2.9-3.65c1,0,3.18,0,3.7,1C71.83,60.65,70.91,62.41,70.91,63.17Z"/><path class="cls-8" d="M121.34,62.39c0,2.16-1.48,3.9-3.3,3.9-1.17,0-.81,1.49-1.4.4a8.8,8.8,0,0,1-.6-3c0-.81-1.51-4.83-1.15-5.45.59-1,2,.25,3.15.25C119.86,58.49,121.34,60.24,121.34,62.39Z"/><path class="cls-9" d="M100.36,71.89a10.14,10.14,0,0,1,1.17-1.74,6,6,0,0,1,.67-.66s.3-.23.07-.07l.32-.21.31-.18c.08,0,.33-.11,0,0,.19-.06.38-.13.58-.18a1.42,1.42,0,0,1,.2,0l-.13,0h.12a3.38,3.38,0,0,1,.45,0,.58.58,0,0,0,.19,0c-.31,0-.27,0-.09,0l.29.07.27.08c.08,0,.42.15.24.07a3.57,3.57,0,0,1,1.36,1.12c.16.19,0,0,.13.17s.19.28.27.42a4.37,4.37,0,0,1,.22.43c-.11-.24,0,.16.07.21a1.25,1.25,0,1,0,2.41-.66,6.35,6.35,0,0,0-4.32-4.25,5,5,0,0,0-4.12.76,9.93,9.93,0,0,0-2.85,3.39,1.25,1.25,0,0,0,2.16,1.26Z"/><path class="cls-9" d="M89.94,70.76c-1-1.84-2.58-3.85-4.79-4.23a5.23,5.23,0,0,0-3.9.84,6.86,6.86,0,0,0-2.6,3.49,1.25,1.25,0,0,0,2.41.66s.17-.45.07-.21a3.48,3.48,0,0,1,.22-.43,3.87,3.87,0,0,1,.24-.37.91.91,0,0,1,.11-.16l0-.06a3.52,3.52,0,0,1,1.35-1.12c-.17.08.17,0,.25-.07l.26-.08.3-.07c.18,0,.22.06-.09,0a.58.58,0,0,0,.19,0h.45c.05,0,.33,0,.09,0s.06,0,.1,0a3.89,3.89,0,0,1,.58.18c-.18-.06-.15-.07,0,0l.32.18.32.21c-.24-.16,0,0,.07.07a6,6,0,0,1,.67.66A10.14,10.14,0,0,1,87.78,72a1.25,1.25,0,0,0,2.16-1.26Z"/><polygon class="cls-10" points="102.08 188.98 97.28 188.98 97.13 108.58 102.23 108.43 102.08 188.98"/><polygon class="cls-10" points="92.73 186.33 87.93 186.33 87.83 108.08 92.83 108.43 92.73 186.33"/><path class="cls-11" d="M103.83,141.89H59a3.18,3.18,0,0,1-3.19-3.18v-4.94h48l-5.91,4.34Z"/><path class="cls-12" d="M21.94,111.9l1.73-1.36L59.7,169c1.16,1.78,2,3.21.1,4.23h0c-1.87,1-2.65-.66-3.67-2.53Z"/><rect class="cls-11" x="56.68" y="147.8" width="45.31" height="53.19"/><circle class="cls-6" cx="75.2" cy="183.71" r="6.73"/><rect class="cls-6" x="79.73" y="161.15" width="2.17" height="22.47"/><rect class="cls-6" x="79.68" y="161.1" width="11.21" height="3.74"/></g></g></svg>