<svg id="Calque_1" data-name="Calque 1" xmlns="http://www.w3.org/2000/svg" viewBox="0 0 448 201.78"><defs><style>.cls-1{fill:#88c1f2;}.cls-2{fill:#203359;}.cls-3{fill:#fff;}</style></defs><rect class="cls-1" x="192" y="69.63" width="256" height="132.15" rx="29.93"/><rect class="cls-2" width="250.8" height="129.19" rx="26.07"/><path class="cls-3" d="M186.54,181a13.82,13.82,0,0,1,2.22-.17,3.64,3.64,0,0,1,2.5.74,2.39,2.39,0,0,1,.78,1.87,2.6,2.6,0,0,1-.69,1.9,3.69,3.69,0,0,1-2.73,1,4.3,4.3,0,0,1-.92-.07v3.57h-1.16Zm1.16,4.3a3.64,3.64,0,0,0,1,.1c1.39,0,2.24-.68,2.24-1.91s-.84-1.75-2.11-1.75a5,5,0,0,0-1.08.09Z" transform="translate(-170.15 -139.59)"/><path class="cls-3" d="M199,186.56a3.14,3.14,0,0,1-3.19,3.41,3,3,0,0,1-3.07-3.3,3.12,3.12,0,0,1,3.18-3.4A3,3,0,0,1,199,186.56Zm-5.08.07c0,1.4.8,2.46,1.94,2.46s2-1,2-2.49c0-1.08-.54-2.46-1.92-2.46S193.94,185.41,193.94,186.63Z" transform="translate(-170.15 -139.59)"/><path class="cls-3" d="M205.86,188.07c0,.67,0,1.25,0,1.75h-1l-.07-1h0a2.4,2.4,0,0,1-2.11,1.2c-1,0-2.22-.56-2.22-2.81v-3.75h1.17V187c0,1.22.37,2,1.43,2a1.7,1.7,0,0,0,1.54-1.06,1.84,1.84,0,0,0,.1-.6v-3.93h1.17Z" transform="translate(-170.15 -139.59)"/><path class="cls-3" d="M207.79,185.41c0-.75,0-1.4,0-2h1l0,1.26h0a1.92,1.92,0,0,1,1.78-1.4,1.15,1.15,0,0,1,.33,0v1.09a2.25,2.25,0,0,0-.4,0,1.64,1.64,0,0,0-1.56,1.5,3,3,0,0,0-.06.54v3.42h-1.15Z" transform="translate(-170.15 -139.59)"/><path class="cls-3" d="M220.47,180.42v7.75c0,.57,0,1.21.05,1.65h-1.05l-.05-1.11h0a2.39,2.39,0,0,1-2.19,1.26c-1.55,0-2.74-1.31-2.74-3.26,0-2.13,1.31-3.44,2.87-3.44a2.16,2.16,0,0,1,1.94,1h0v-3.83ZM219.3,186a2,2,0,0,0-.05-.49,1.71,1.71,0,0,0-1.68-1.35c-1.21,0-1.92,1.06-1.92,2.48s.63,2.37,1.89,2.37a1.76,1.76,0,0,0,1.71-1.39,2.05,2.05,0,0,0,.05-.51Z" transform="translate(-170.15 -139.59)"/><path class="cls-3" d="M223.05,186.83a2.05,2.05,0,0,0,2.2,2.22,4.2,4.2,0,0,0,1.78-.33l.19.84a5.3,5.3,0,0,1-2.13.39,3,3,0,0,1-3.15-3.23c0-1.93,1.14-3.45,3-3.45,2.09,0,2.64,1.84,2.64,3,0,.23,0,.42,0,.54Zm3.42-.84a1.66,1.66,0,0,0-1.62-1.89,1.94,1.94,0,0,0-1.79,1.89Zm.28-5.35-1.62,1.9h-.83l1.16-1.9Z" transform="translate(-170.15 -139.59)"/><path class="cls-3" d="M229,189.82c0-.44,0-1.08,0-1.65v-7.75h1.15v4h0a2.39,2.39,0,0,1,2.18-1.17c1.59,0,2.72,1.32,2.71,3.27,0,2.29-1.45,3.43-2.88,3.43a2.27,2.27,0,0,1-2.14-1.21h0l-.06,1.06Zm1.2-2.57a2,2,0,0,0,.06.43A1.8,1.8,0,0,0,232,189c1.22,0,1.95-1,1.95-2.46,0-1.29-.66-2.39-1.91-2.39a1.87,1.87,0,0,0-1.77,1.43,2.12,2.12,0,0,0-.07.48Z" transform="translate(-170.15 -139.59)"/><path class="cls-3" d="M241.94,188.07c0,.67,0,1.25.05,1.75h-1l-.06-1h0a2.42,2.42,0,0,1-2.12,1.2c-1,0-2.21-.56-2.21-2.81v-3.75h1.16V187c0,1.22.37,2,1.43,2a1.67,1.67,0,0,0,1.54-1.06,1.6,1.6,0,0,0,.11-.6v-3.93h1.16Z" transform="translate(-170.15 -139.59)"/><path class="cls-3" d="M245.28,181.57v1.84H247v.89h-1.67v3.46c0,.79.22,1.24.87,1.24a2.61,2.61,0,0,0,.68-.08l0,.87a2.66,2.66,0,0,1-1,.16,1.62,1.62,0,0,1-1.26-.49,2.37,2.37,0,0,1-.45-1.67V184.3h-1v-.89h1v-1.54Z" transform="translate(-170.15 -139.59)"/><path class="cls-3" d="M251.81,189.82l-.09-.81h0a2.38,2.38,0,0,1-2,1,1.83,1.83,0,0,1-2-1.84c0-1.55,1.37-2.4,3.85-2.39v-.13a1.32,1.32,0,0,0-1.46-1.48,3.19,3.19,0,0,0-1.66.47l-.27-.77a4,4,0,0,1,2.11-.56c2,0,2.43,1.33,2.43,2.62v2.39a9,9,0,0,0,.11,1.54Zm-.17-3.27c-1.27,0-2.72.2-2.72,1.44a1,1,0,0,0,1.1,1.12,1.58,1.58,0,0,0,1.55-1.08,1.21,1.21,0,0,0,.07-.37Z" transform="translate(-170.15 -139.59)"/><path class="cls-3" d="M254.65,185.15c0-.67,0-1.21-.06-1.74h1l.06,1.06h0a2.36,2.36,0,0,1,2.12-1.2c.89,0,2.26.52,2.26,2.72v3.83h-1.16v-3.69c0-1-.39-1.9-1.49-1.9a1.66,1.66,0,0,0-1.56,1.19,1.82,1.82,0,0,0-.08.55v3.85h-1.16Z" transform="translate(-170.15 -139.59)"/><path class="cls-3" d="M263.35,181.57v1.84H265v.89h-1.67v3.46c0,.79.22,1.24.87,1.24a2.61,2.61,0,0,0,.68-.08l.05.87a2.66,2.66,0,0,1-1,.16,1.62,1.62,0,0,1-1.26-.49,2.37,2.37,0,0,1-.45-1.67V184.3h-1v-.89h1v-1.54Z" transform="translate(-170.15 -139.59)"/><path class="cls-3" d="M266.17,188.63a3.08,3.08,0,0,0,1.54.46c.84,0,1.24-.42,1.24-1s-.33-.86-1.19-1.18c-1.15-.41-1.7-1.05-1.7-1.81a2,2,0,0,1,2.22-1.88,3.2,3.2,0,0,1,1.57.39l-.29.85a2.46,2.46,0,0,0-1.31-.37c-.69,0-1.07.4-1.07.87s.38.77,1.22,1.09c1.11.42,1.68,1,1.68,1.93,0,1.13-.88,1.92-2.4,1.92a3.71,3.71,0,0,1-1.8-.43Z" transform="translate(-170.15 -139.59)"/><path class="cls-3" d="M280.18,186.56A3.14,3.14,0,0,1,277,190a3,3,0,0,1-3.07-3.3,3.12,3.12,0,0,1,3.18-3.4A3,3,0,0,1,280.18,186.56Zm-5.08.07c0,1.4.81,2.46,1.94,2.46s1.95-1,1.95-2.49c0-1.08-.54-2.46-1.92-2.46S275.1,185.41,275.1,186.63Z" transform="translate(-170.15 -139.59)"/><path class="cls-3" d="M287,188.07c0,.67,0,1.25.05,1.75h-1l-.07-1h0a2.42,2.42,0,0,1-2.12,1.2c-1,0-2.21-.56-2.21-2.81v-3.75h1.16V187c0,1.22.37,2,1.43,2a1.68,1.68,0,0,0,1.54-1.06,1.84,1.84,0,0,0,.1-.6v-3.93H287Z" transform="translate(-170.15 -139.59)"/><path class="cls-3" d="M291.76,185.15c0-.67,0-1.21-.05-1.74h1l0,1h0a2.22,2.22,0,0,1,2-1.17,1.88,1.88,0,0,1,1.81,1.28h0a2.57,2.57,0,0,1,.71-.83,2.16,2.16,0,0,1,1.42-.45c.85,0,2.11.55,2.11,2.78v3.77h-1.14v-3.63c0-1.23-.45-2-1.39-2a1.51,1.51,0,0,0-1.38,1.06,1.72,1.72,0,0,0-.09.58v4h-1.14V186c0-1-.45-1.76-1.34-1.76a1.6,1.6,0,0,0-1.45,1.16,1.84,1.84,0,0,0-.09.57v3.87h-1.14Z" transform="translate(-170.15 -139.59)"/><path class="cls-3" d="M308.17,188.07c0,.67,0,1.25.06,1.75h-1l-.06-1h0A2.4,2.4,0,0,1,305,190c-1,0-2.21-.56-2.21-2.81v-3.75h1.17V187c0,1.22.37,2,1.43,2a1.67,1.67,0,0,0,1.53-1.06,1.6,1.6,0,0,0,.11-.6v-3.93h1.16Z" transform="translate(-170.15 -139.59)"/><path class="cls-3" d="M310,188.63a3.08,3.08,0,0,0,1.54.46c.84,0,1.24-.42,1.24-1s-.33-.86-1.19-1.18c-1.15-.41-1.7-1.05-1.7-1.81a2,2,0,0,1,2.22-1.88,3.2,3.2,0,0,1,1.57.39l-.29.85a2.46,2.46,0,0,0-1.31-.37c-.69,0-1.07.4-1.07.87s.38.77,1.22,1.09c1.11.42,1.68,1,1.68,1.93,0,1.13-.88,1.92-2.4,1.92a3.71,3.71,0,0,1-1.8-.43Z" transform="translate(-170.15 -139.59)"/><path class="cls-3" d="M316.65,181.61a.72.72,0,0,1-1.44,0,.71.71,0,0,1,.73-.73A.69.69,0,0,1,316.65,181.61Zm-1.3,8.21v-6.41h1.17v6.41Z" transform="translate(-170.15 -139.59)"/><path class="cls-3" d="M323,189.58a4.26,4.26,0,0,1-1.84.37,3,3,0,0,1-3.19-3.27,3.25,3.25,0,0,1,3.44-3.4,3.91,3.91,0,0,1,1.62.33l-.26.9a2.73,2.73,0,0,0-1.36-.3,2.42,2.42,0,0,0,0,4.82,3.36,3.36,0,0,0,1.43-.32Z" transform="translate(-170.15 -139.59)"/><path class="cls-3" d="M325.69,181.61a.73.73,0,0,1-1.45,0,.72.72,0,0,1,.73-.73A.7.7,0,0,1,325.69,181.61Zm-1.3,8.21v-6.41h1.16v6.41Z" transform="translate(-170.15 -139.59)"/><path class="cls-3" d="M328.14,186.83a2,2,0,0,0,2.2,2.22,4.15,4.15,0,0,0,1.77-.33l.2.84a5.3,5.3,0,0,1-2.13.39,3,3,0,0,1-3.16-3.23c0-1.93,1.14-3.45,3-3.45,2.09,0,2.65,1.84,2.65,3a5.28,5.28,0,0,1,0,.54Zm3.41-.84a1.65,1.65,0,0,0-1.61-1.89,1.93,1.93,0,0,0-1.79,1.89Z" transform="translate(-170.15 -139.59)"/><path class="cls-3" d="M334.12,185.15c0-.67,0-1.21-.05-1.74h1l.07,1.06h0a2.36,2.36,0,0,1,2.12-1.2c.88,0,2.26.52,2.26,2.72v3.83h-1.16v-3.69c0-1-.39-1.9-1.49-1.9a1.65,1.65,0,0,0-1.56,1.19,1.82,1.82,0,0,0-.08.55v3.85h-1.17Z" transform="translate(-170.15 -139.59)"/><path class="cls-3" d="M341.32,188.63a3.08,3.08,0,0,0,1.53.46c.85,0,1.25-.42,1.25-1s-.33-.86-1.19-1.18c-1.15-.41-1.7-1.05-1.7-1.81a2,2,0,0,1,2.21-1.88,3.25,3.25,0,0,1,1.58.39l-.29.85a2.49,2.49,0,0,0-1.31-.37c-.69,0-1.07.4-1.07.87s.38.77,1.21,1.09c1.12.42,1.69,1,1.69,1.93,0,1.13-.88,1.92-2.4,1.92a3.71,3.71,0,0,1-1.8-.43Z" transform="translate(-170.15 -139.59)"/><path class="cls-3" d="M353.08,189.82,353,189h0a2.38,2.38,0,0,1-2,1,1.83,1.83,0,0,1-2-1.84c0-1.55,1.38-2.4,3.85-2.39v-.13a1.31,1.31,0,0,0-1.45-1.48,3.19,3.19,0,0,0-1.67.47l-.27-.77a4,4,0,0,1,2.11-.56c2,0,2.43,1.33,2.43,2.62v2.39a9,9,0,0,0,.11,1.54Zm-.17-3.27c-1.27,0-2.72.2-2.72,1.44a1,1,0,0,0,1.1,1.12,1.58,1.58,0,0,0,1.55-1.08,1.21,1.21,0,0,0,.07-.37Z" transform="translate(-170.15 -139.59)"/><path class="cls-3" d="M355.92,185.15c0-.67,0-1.21-.06-1.74h1l.06,1h0a2.19,2.19,0,0,1,2-1.17,1.88,1.88,0,0,1,1.81,1.28h0a2.57,2.57,0,0,1,.71-.83,2.16,2.16,0,0,1,1.42-.45c.85,0,2.11.55,2.11,2.78v3.77h-1.14v-3.63c0-1.23-.45-2-1.39-2a1.52,1.52,0,0,0-1.38,1.06,2,2,0,0,0-.09.58v4h-1.14V186c0-1-.45-1.76-1.34-1.76a1.72,1.72,0,0,0-1.53,1.73v3.87h-1.14Z" transform="translate(-170.15 -139.59)"/><path class="cls-3" d="M370.51,189.82l-.09-.81h0a2.38,2.38,0,0,1-2,1,1.83,1.83,0,0,1-2-1.84c0-1.55,1.38-2.4,3.85-2.39v-.13a1.31,1.31,0,0,0-1.45-1.48,3.19,3.19,0,0,0-1.67.47l-.27-.77a4,4,0,0,1,2.11-.56c2,0,2.44,1.33,2.44,2.62v2.39a9.05,9.05,0,0,0,.1,1.54Zm-.17-3.27c-1.27,0-2.71.2-2.71,1.44a1,1,0,0,0,1.1,1.12,1.58,1.58,0,0,0,1.54-1.08,1.21,1.21,0,0,0,.07-.37Z" transform="translate(-170.15 -139.59)"/><path class="cls-3" d="M374.7,181.57v1.84h1.67v.89H374.7v3.46c0,.79.22,1.24.87,1.24a2.61,2.61,0,0,0,.68-.08l.05.87a2.66,2.66,0,0,1-1,.16,1.62,1.62,0,0,1-1.26-.49,2.37,2.37,0,0,1-.45-1.67V184.3h-1v-.89h1v-1.54Z" transform="translate(-170.15 -139.59)"/><path class="cls-3" d="M378.25,186.83a2.05,2.05,0,0,0,2.2,2.22,4.11,4.11,0,0,0,1.77-.33l.2.84a5.3,5.3,0,0,1-2.13.39,3,3,0,0,1-3.15-3.23c0-1.93,1.14-3.45,3-3.45,2.1,0,2.65,1.84,2.65,3a3.41,3.41,0,0,1,0,.54Zm3.42-.84a1.66,1.66,0,0,0-1.62-1.89,1.94,1.94,0,0,0-1.79,1.89Z" transform="translate(-170.15 -139.59)"/><path class="cls-3" d="M389.6,188.07c0,.67,0,1.25,0,1.75h-1l-.06-1h0a2.42,2.42,0,0,1-2.12,1.2c-1,0-2.21-.56-2.21-2.81v-3.75h1.16V187c0,1.22.37,2,1.43,2a1.67,1.67,0,0,0,1.54-1.06,1.6,1.6,0,0,0,.11-.6v-3.93h1.16Z" transform="translate(-170.15 -139.59)"/><path class="cls-3" d="M391.54,185.41c0-.75,0-1.4-.06-2h1l0,1.26h.06a1.91,1.91,0,0,1,1.77-1.4,1.11,1.11,0,0,1,.33,0v1.09a2.25,2.25,0,0,0-.4,0,1.64,1.64,0,0,0-1.56,1.5,3,3,0,0,0-.05.54v3.42h-1.15Z" transform="translate(-170.15 -139.59)"/><path class="cls-3" d="M395.71,188.63a3.08,3.08,0,0,0,1.54.46c.84,0,1.24-.42,1.24-1s-.33-.86-1.19-1.18c-1.15-.41-1.7-1.05-1.7-1.81a2,2,0,0,1,2.21-1.88,3.25,3.25,0,0,1,1.58.39l-.29.85a2.49,2.49,0,0,0-1.31-.37c-.69,0-1.07.4-1.07.87s.38.77,1.21,1.09c1.12.42,1.69,1,1.69,1.93,0,1.13-.88,1.92-2.4,1.92a3.71,3.71,0,0,1-1.8-.43Z" transform="translate(-170.15 -139.59)"/><path class="cls-3" d="M400.21,191.45a19.56,19.56,0,0,0,.8-3.17l1.3-.13a16.37,16.37,0,0,1-1.26,3.22Z" transform="translate(-170.15 -139.59)"/><path class="cls-3" d="M186,201.8c-.07-1.25-.15-2.74-.14-3.86h0c-.3,1.05-.67,2.16-1.12,3.39l-1.58,4.33h-.87l-1.44-4.25c-.43-1.26-.79-2.41-1-3.47h0c0,1.12-.1,2.61-.18,3.95l-.23,3.83h-1.1l.62-8.93h1.47l1.52,4.32c.37,1.1.68,2.08.9,3h0c.23-.91.54-1.89.94-3l1.59-4.32h1.47l.56,8.93h-1.13Z" transform="translate(-170.15 -139.59)"/><path class="cls-3" d="M192.68,205.72l-.09-.81h0a2.4,2.4,0,0,1-2,1,1.82,1.82,0,0,1-2-1.84c0-1.55,1.38-2.4,3.86-2.38v-.13A1.33,1.33,0,0,0,191,200a3.2,3.2,0,0,0-1.67.48l-.27-.77a4,4,0,0,1,2.11-.57c2,0,2.44,1.34,2.44,2.62v2.4a9.05,9.05,0,0,0,.1,1.54Zm-.17-3.27c-1.27,0-2.71.2-2.71,1.44a1,1,0,0,0,1.1,1.11,1.61,1.61,0,0,0,1.55-1.07,1.19,1.19,0,0,0,.06-.37Z" transform="translate(-170.15 -139.59)"/><path class="cls-3" d="M196.17,202.72a2.05,2.05,0,0,0,2.2,2.23,4.31,4.31,0,0,0,1.77-.33l.2.83a5.09,5.09,0,0,1-2.13.4,3,3,0,0,1-3.15-3.23c0-1.93,1.13-3.46,3-3.46,2.09,0,2.65,1.84,2.65,3a4.84,4.84,0,0,1,0,.54Zm3.41-.83A1.65,1.65,0,0,0,198,200a1.93,1.93,0,0,0-1.79,1.89Z" transform="translate(-170.15 -139.59)"/><path class="cls-3" d="M202,204.53a3.08,3.08,0,0,0,1.53.46c.85,0,1.25-.42,1.25-1s-.33-.87-1.19-1.18c-1.16-.41-1.7-1.05-1.7-1.82a2,2,0,0,1,2.21-1.88,3.24,3.24,0,0,1,1.58.4l-.29.85a2.49,2.49,0,0,0-1.31-.37c-.69,0-1.08.39-1.08.87s.39.77,1.22,1.09c1.11.42,1.68,1,1.68,1.93,0,1.13-.87,1.92-2.39,1.92a3.57,3.57,0,0,1-1.8-.44Z" transform="translate(-170.15 -139.59)"/><path class="cls-3" d="M208.81,197.47v1.84h1.66v.88h-1.66v3.46c0,.8.22,1.25.87,1.25a2.52,2.52,0,0,0,.67-.08l.06.87a2.91,2.91,0,0,1-1,.16,1.59,1.59,0,0,1-1.26-.49,2.37,2.37,0,0,1-.45-1.67v-3.5h-1v-.88h1v-1.54Z" transform="translate(-170.15 -139.59)"/><path class="cls-3" d="M211.79,201.31c0-.76,0-1.41-.06-2h1l0,1.26h.06a1.91,1.91,0,0,1,1.77-1.41,1.11,1.11,0,0,1,.33,0v1.1a1.59,1.59,0,0,0-.4,0,1.63,1.63,0,0,0-1.56,1.5,2.92,2.92,0,0,0-.05.54v3.42h-1.15Z" transform="translate(-170.15 -139.59)"/><path class="cls-3" d="M221.79,202.46a3.14,3.14,0,0,1-3.2,3.4,3,3,0,0,1-3.07-3.29,3.14,3.14,0,0,1,3.18-3.41A3,3,0,0,1,221.79,202.46Zm-5.09.07c0,1.4.81,2.46,2,2.46s1.94-1.05,1.94-2.49c0-1.09-.54-2.46-1.92-2.46S216.7,201.31,216.7,202.53Z" transform="translate(-170.15 -139.59)"/><path class="cls-3" d="M227.47,197.47v1.84h1.67v.88h-1.67v3.46c0,.8.23,1.25.87,1.25a2.61,2.61,0,0,0,.68-.08l0,.87a2.87,2.87,0,0,1-1,.16,1.62,1.62,0,0,1-1.26-.49,2.37,2.37,0,0,1-.45-1.67v-3.5h-1v-.88h1v-1.54Z" transform="translate(-170.15 -139.59)"/><path class="cls-3" d="M231,202.72a2.06,2.06,0,0,0,2.2,2.23,4.27,4.27,0,0,0,1.77-.33l.2.83a5.09,5.09,0,0,1-2.13.4,3,3,0,0,1-3.15-3.23c0-1.93,1.14-3.46,3-3.46,2.1,0,2.65,1.84,2.65,3a3.21,3.21,0,0,1,0,.54Zm3.42-.83a1.66,1.66,0,0,0-1.62-1.89,1.93,1.93,0,0,0-1.79,1.89Z" transform="translate(-170.15 -139.59)"/><path class="cls-3" d="M239.82,201.4c0-.82,0-1.48-.06-2.09h1.05l.05,1.1h0a2.53,2.53,0,0,1,2.28-1.25c1.55,0,2.71,1.31,2.71,3.26,0,2.3-1.4,3.44-2.91,3.44a2.27,2.27,0,0,1-2-1h0v3.48h-1.15Zm1.15,1.71a2.44,2.44,0,0,0,.05.48,1.81,1.81,0,0,0,1.75,1.36c1.23,0,1.95-1,1.95-2.48,0-1.28-.68-2.38-1.91-2.38a1.85,1.85,0,0,0-1.76,1.44,1.93,1.93,0,0,0-.08.48Z" transform="translate(-170.15 -139.59)"/><path class="cls-3" d="M248,202.72a2.06,2.06,0,0,0,2.2,2.23,4.32,4.32,0,0,0,1.78-.33l.19.83a5.09,5.09,0,0,1-2.13.4,3,3,0,0,1-3.15-3.23c0-1.93,1.14-3.46,3-3.46,2.09,0,2.65,1.84,2.65,3a4.84,4.84,0,0,1,0,.54Zm3.42-.83A1.66,1.66,0,0,0,249.8,200a1.92,1.92,0,0,0-1.78,1.89Z" transform="translate(-170.15 -139.59)"/><path class="cls-3" d="M254,201.31c0-.76,0-1.41-.05-2h1l0,1.26h.05a1.91,1.91,0,0,1,1.77-1.41,1.18,1.18,0,0,1,.34,0v1.1a1.59,1.59,0,0,0-.4,0,1.62,1.62,0,0,0-1.56,1.5,2.87,2.87,0,0,0-.06.54v3.42H254Z" transform="translate(-170.15 -139.59)"/><path class="cls-3" d="M258.37,201c0-.66,0-1.2-.05-1.73h1l.05,1h0a2.22,2.22,0,0,1,2-1.18,1.89,1.89,0,0,1,1.81,1.29h0a2.72,2.72,0,0,1,.71-.84,2.21,2.21,0,0,1,1.42-.45c.85,0,2.11.56,2.11,2.78v3.78h-1.14v-3.63c0-1.23-.45-2-1.39-2a1.51,1.51,0,0,0-1.38,1,2.09,2.09,0,0,0-.09.59v4h-1.14v-3.84c0-1-.45-1.76-1.34-1.76a1.58,1.58,0,0,0-1.44,1.16,1.52,1.52,0,0,0-.1.57v3.87h-1.14Z" transform="translate(-170.15 -139.59)"/><path class="cls-3" d="M270.07,202.72a2.06,2.06,0,0,0,2.2,2.23,4.27,4.27,0,0,0,1.77-.33l.2.83a5.09,5.09,0,0,1-2.13.4,3,3,0,0,1-3.15-3.23c0-1.93,1.14-3.46,3-3.46,2.09,0,2.64,1.84,2.64,3a3.21,3.21,0,0,1,0,.54Zm3.42-.83a1.66,1.66,0,0,0-1.62-1.89,1.93,1.93,0,0,0-1.79,1.89Z" transform="translate(-170.15 -139.59)"/><path class="cls-3" d="M277.46,197.47v1.84h1.67v.88h-1.67v3.46c0,.8.23,1.25.88,1.25a2.52,2.52,0,0,0,.67-.08l.06.87a3,3,0,0,1-1,.16,1.62,1.62,0,0,1-1.26-.49,2.37,2.37,0,0,1-.45-1.67v-3.5h-1v-.88h1v-1.54Z" transform="translate(-170.15 -139.59)"/><path class="cls-3" d="M280.29,204.53a3.08,3.08,0,0,0,1.53.46c.85,0,1.25-.42,1.25-1s-.33-.87-1.2-1.18c-1.15-.41-1.69-1.05-1.69-1.82a2,2,0,0,1,2.21-1.88,3.24,3.24,0,0,1,1.58.4l-.29.85a2.53,2.53,0,0,0-1.32-.37c-.68,0-1.07.39-1.07.87s.39.77,1.22,1.09c1.11.42,1.68,1,1.68,1.93,0,1.13-.87,1.92-2.4,1.92a3.6,3.6,0,0,1-1.8-.44Z" transform="translate(-170.15 -139.59)"/><path class="cls-3" d="M294,196.31v7.75c0,.57,0,1.22.06,1.66h-1L293,204.6h0a2.37,2.37,0,0,1-2.18,1.26c-1.55,0-2.75-1.31-2.75-3.25,0-2.14,1.32-3.45,2.88-3.45a2.15,2.15,0,0,1,1.93,1h0v-3.83Zm-1.16,5.61a2.63,2.63,0,0,0-.05-.49,1.73,1.73,0,0,0-1.69-1.35c-1.2,0-1.92,1.06-1.92,2.47s.64,2.37,1.9,2.37a1.75,1.75,0,0,0,1.71-1.39,2.65,2.65,0,0,0,.05-.5Z" transform="translate(-170.15 -139.59)"/><path class="cls-3" d="M296.83,196.65l-.23,3.17h-.71l-.21-3.17Z" transform="translate(-170.15 -139.59)"/><path class="cls-3" d="M302,205.72l-.09-.81h0a2.4,2.4,0,0,1-2,1,1.82,1.82,0,0,1-2-1.84c0-1.55,1.37-2.4,3.85-2.38v-.13a1.33,1.33,0,0,0-1.46-1.49,3.23,3.23,0,0,0-1.67.48l-.26-.77a4,4,0,0,1,2.11-.57c2,0,2.43,1.34,2.43,2.62v2.4a9,9,0,0,0,.11,1.54Zm-.17-3.27c-1.28,0-2.72.2-2.72,1.44a1,1,0,0,0,1.1,1.11,1.6,1.6,0,0,0,1.55-1.07,1.21,1.21,0,0,0,.07-.37Z" transform="translate(-170.15 -139.59)"/><path class="cls-3" d="M304.84,201.4c0-.82,0-1.48,0-2.09h1l.05,1.1h0a2.51,2.51,0,0,1,2.27-1.25c1.55,0,2.72,1.31,2.72,3.26,0,2.3-1.4,3.44-2.91,3.44a2.27,2.27,0,0,1-2-1h0v3.48h-1.16Zm1.16,1.71a2.44,2.44,0,0,0,.05.48A1.8,1.8,0,0,0,307.8,205c1.23,0,1.94-1,1.94-2.48,0-1.28-.67-2.38-1.9-2.38a1.85,1.85,0,0,0-1.76,1.44,1.93,1.93,0,0,0-.08.48Z" transform="translate(-170.15 -139.59)"/><path class="cls-3" d="M312.38,201.4c0-.82,0-1.48-.05-2.09h1.05l.05,1.1h0a2.54,2.54,0,0,1,2.28-1.25c1.55,0,2.72,1.31,2.72,3.26,0,2.3-1.41,3.44-2.92,3.44a2.25,2.25,0,0,1-2-1h0v3.48h-1.15Zm1.15,1.71a2.42,2.42,0,0,0,.06.48,1.8,1.8,0,0,0,1.74,1.36c1.24,0,1.95-1,1.95-2.48,0-1.28-.67-2.38-1.91-2.38a1.87,1.87,0,0,0-1.76,1.44,1.93,1.93,0,0,0-.08.48Z" transform="translate(-170.15 -139.59)"/><path class="cls-3" d="M319.92,201.31c0-.76,0-1.41-.05-2h1l0,1.26H321a1.91,1.91,0,0,1,1.77-1.41,1.06,1.06,0,0,1,.33,0v1.1a1.46,1.46,0,0,0-.39,0,1.64,1.64,0,0,0-1.57,1.5,4.15,4.15,0,0,0-.05.54v3.42h-1.15Z" transform="translate(-170.15 -139.59)"/><path class="cls-3" d="M324.77,202.72A2.05,2.05,0,0,0,327,205a4.31,4.31,0,0,0,1.77-.33l.2.83a5.09,5.09,0,0,1-2.13.4,3,3,0,0,1-3.16-3.23c0-1.93,1.14-3.46,3-3.46,2.09,0,2.65,1.84,2.65,3a4.84,4.84,0,0,1,0,.54Zm3.41-.83a1.65,1.65,0,0,0-1.61-1.89,1.93,1.93,0,0,0-1.79,1.89Z" transform="translate(-170.15 -139.59)"/><path class="cls-3" d="M330.75,201c0-.66,0-1.2-.05-1.73h1l.07,1.06h0a2.36,2.36,0,0,1,2.12-1.21c.88,0,2.26.53,2.26,2.73v3.83h-1.16V202c0-1-.39-1.89-1.49-1.89a1.65,1.65,0,0,0-1.56,1.19,1.8,1.8,0,0,0-.08.54v3.86h-1.17Z" transform="translate(-170.15 -139.59)"/><path class="cls-3" d="M343.64,196.31v7.75c0,.57,0,1.22.06,1.66h-1.05l0-1.12h0a2.37,2.37,0,0,1-2.18,1.26c-1.55,0-2.75-1.31-2.75-3.25,0-2.14,1.31-3.45,2.88-3.45a2.15,2.15,0,0,1,1.93,1h0v-3.83Zm-1.16,5.61a2,2,0,0,0-.06-.49,1.71,1.71,0,0,0-1.68-1.35c-1.2,0-1.92,1.06-1.92,2.47s.64,2.37,1.9,2.37a1.74,1.74,0,0,0,1.7-1.39,2,2,0,0,0,.06-.5Z" transform="translate(-170.15 -139.59)"/><path class="cls-3" d="M345.58,201.31c0-.76,0-1.41-.05-2h1l0,1.26h.06a1.91,1.91,0,0,1,1.77-1.41,1.11,1.11,0,0,1,.33,0v1.1a1.51,1.51,0,0,0-.39,0,1.64,1.64,0,0,0-1.57,1.5,4.15,4.15,0,0,0,0,.54v3.42h-1.15Z" transform="translate(-170.15 -139.59)"/><path class="cls-3" d="M350.43,202.72a2,2,0,0,0,2.19,2.23,4.32,4.32,0,0,0,1.78-.33l.2.83a5.09,5.09,0,0,1-2.13.4,3,3,0,0,1-3.16-3.23c0-1.93,1.14-3.46,3-3.46,2.09,0,2.65,1.84,2.65,3a4.84,4.84,0,0,1,0,.54Zm3.41-.83a1.65,1.65,0,0,0-1.61-1.89,1.93,1.93,0,0,0-1.79,1.89Z" transform="translate(-170.15 -139.59)"/><path class="cls-3" d="M359.22,196.31h1.17v9.41h-1.17Z" transform="translate(-170.15 -139.59)"/><path class="cls-3" d="M363,202.72a2.05,2.05,0,0,0,2.2,2.23,4.31,4.31,0,0,0,1.77-.33l.2.83a5.09,5.09,0,0,1-2.13.4,3,3,0,0,1-3.16-3.23c0-1.93,1.14-3.46,3-3.46,2.09,0,2.65,1.84,2.65,3a4.84,4.84,0,0,1,0,.54Zm3.41-.83A1.65,1.65,0,0,0,364.8,200a1.93,1.93,0,0,0-1.79,1.89Z" transform="translate(-170.15 -139.59)"/><path class="cls-3" d="M371.63,204.53a3.15,3.15,0,0,0,1.54.46c.85,0,1.25-.42,1.25-1s-.34-.87-1.2-1.18c-1.15-.41-1.69-1.05-1.69-1.82a2,2,0,0,1,2.21-1.88,3.24,3.24,0,0,1,1.58.4l-.3.85a2.46,2.46,0,0,0-1.31-.37c-.69,0-1.07.39-1.07.87s.38.77,1.22,1.09c1.11.42,1.68,1,1.68,1.93,0,1.13-.87,1.92-2.4,1.92a3.6,3.6,0,0,1-1.8-.44Z" transform="translate(-170.15 -139.59)"/><path class="cls-3" d="M382.84,202.46a3.13,3.13,0,0,1-3.19,3.4,3,3,0,0,1-3.07-3.29,3.13,3.13,0,0,1,3.17-3.41A3,3,0,0,1,382.84,202.46Zm-5.09.07c0,1.4.81,2.46,1.95,2.46s1.95-1.05,1.95-2.49c0-1.09-.55-2.46-1.92-2.46S377.75,201.31,377.75,202.53Z" transform="translate(-170.15 -139.59)"/><path class="cls-3" d="M384.31,196.31h1.17v9.41h-1.17Z" transform="translate(-170.15 -139.59)"/><path class="cls-3" d="M387.56,205.72v-5.53h-.9v-.88h.9V199a3,3,0,0,1,.74-2.24,2.23,2.23,0,0,1,1.56-.59,2.73,2.73,0,0,1,1,.18l-.15.9a1.82,1.82,0,0,0-.75-.14c-1,0-1.24.87-1.24,1.85v.35h1.55v.88h-1.55v5.53Z" transform="translate(-170.15 -139.59)"/><path class="cls-3" d="M391.78,202.72A2.06,2.06,0,0,0,394,205a4.32,4.32,0,0,0,1.78-.33l.19.83a5.09,5.09,0,0,1-2.13.4,3,3,0,0,1-3.15-3.23c0-1.93,1.14-3.46,3-3.46,2.09,0,2.65,1.84,2.65,3a4.84,4.84,0,0,1,0,.54Zm3.42-.83a1.66,1.66,0,0,0-1.62-1.89,1.92,1.92,0,0,0-1.78,1.89Zm-2-5.35,1.16,1.89h-.83L392,196.54Z" transform="translate(-170.15 -139.59)"/><path class="cls-3" d="M403.29,199.31c0,.46-.05,1-.05,1.76v3.72a3.71,3.71,0,0,1-.91,2.93,3.44,3.44,0,0,1-2.33.77,4.21,4.21,0,0,1-2.14-.53l.29-.89a3.7,3.7,0,0,0,1.89.5c1.19,0,2.06-.62,2.06-2.24v-.71h0a2.28,2.28,0,0,1-2,1.07,2.86,2.86,0,0,1-2.73-3.12c0-2.18,1.41-3.41,2.88-3.41a2.11,2.11,0,0,1,2,1.11h0l0-1Zm-1.2,2.53a1.74,1.74,0,0,0-.07-.53,1.67,1.67,0,0,0-1.63-1.23c-1.11,0-1.9.94-1.9,2.42,0,1.26.63,2.3,1.89,2.3a1.72,1.72,0,0,0,1.62-1.19,2.21,2.21,0,0,0,.09-.62Z" transform="translate(-170.15 -139.59)"/><path class="cls-3" d="M405.82,202.72A2.06,2.06,0,0,0,408,205a4.32,4.32,0,0,0,1.78-.33l.2.83a5.15,5.15,0,0,1-2.14.4,3,3,0,0,1-3.15-3.23c0-1.93,1.14-3.46,3-3.46,2.09,0,2.65,1.84,2.65,3a4.84,4.84,0,0,1,0,.54Zm3.42-.83a1.66,1.66,0,0,0-1.62-1.89,1.92,1.92,0,0,0-1.78,1.89Z" transform="translate(-170.15 -139.59)"/><path class="cls-3" d="M219.62,212.21V220c0,.57,0,1.22,0,1.65h-1l0-1.11h0a2.37,2.37,0,0,1-2.19,1.26c-1.55,0-2.74-1.31-2.74-3.26,0-2.13,1.31-3.44,2.88-3.44a2.13,2.13,0,0,1,1.93,1h0v-3.83Zm-1.16,5.6a2.12,2.12,0,0,0-.06-.49,1.71,1.71,0,0,0-1.68-1.35c-1.2,0-1.92,1.06-1.92,2.48s.64,2.37,1.89,2.37a1.75,1.75,0,0,0,1.71-1.39,2,2,0,0,0,.06-.5Z" transform="translate(-170.15 -139.59)"/><path class="cls-3" d="M222.21,218.62a2,2,0,0,0,2.19,2.23,4.32,4.32,0,0,0,1.78-.33l.2.83a5.3,5.3,0,0,1-2.13.4,3,3,0,0,1-3.16-3.23c0-1.94,1.14-3.46,3-3.46,2.09,0,2.65,1.84,2.65,3a5.05,5.05,0,0,1,0,.54Zm3.41-.83a1.65,1.65,0,0,0-1.61-1.9,1.93,1.93,0,0,0-1.79,1.9Z" transform="translate(-170.15 -139.59)"/><path class="cls-3" d="M231,216.94c0-.66,0-1.21-.05-1.74h1l.05,1h0a2.21,2.21,0,0,1,2-1.18,1.9,1.9,0,0,1,1.82,1.28h0a2.66,2.66,0,0,1,.71-.83,2.19,2.19,0,0,1,1.42-.45c.85,0,2.1.55,2.1,2.78v3.77H239V218c0-1.24-.45-2-1.39-2a1.49,1.49,0,0,0-1.37,1.06,1.72,1.72,0,0,0-.1.58v4H235v-3.84c0-1-.45-1.76-1.33-1.76a1.6,1.6,0,0,0-1.45,1.17,1.75,1.75,0,0,0-.09.57v3.86H231Z" transform="translate(-170.15 -139.59)"/><path class="cls-3" d="M245.6,221.61l-.09-.8h0a2.4,2.4,0,0,1-2,.95,1.82,1.82,0,0,1-2-1.84c0-1.55,1.37-2.4,3.85-2.39v-.13a1.32,1.32,0,0,0-1.46-1.48,3.14,3.14,0,0,0-1.67.48l-.26-.77a3.94,3.94,0,0,1,2.11-.57c2,0,2.43,1.34,2.43,2.62v2.4a8.86,8.86,0,0,0,.11,1.53Zm-.17-3.27c-1.28,0-2.72.2-2.72,1.45a1,1,0,0,0,1.1,1.11,1.6,1.6,0,0,0,1.55-1.07,1.27,1.27,0,0,0,.07-.37Z" transform="translate(-170.15 -139.59)"/><path class="cls-3" d="M248.43,216.94c0-.66,0-1.21-.05-1.74h1l.07,1.06h0a2.34,2.34,0,0,1,2.12-1.2c.88,0,2.26.53,2.26,2.73v3.82h-1.16v-3.69c0-1-.39-1.9-1.49-1.9a1.66,1.66,0,0,0-1.56,1.2,1.71,1.71,0,0,0-.08.54v3.85h-1.17Z" transform="translate(-170.15 -139.59)"/><path class="cls-3" d="M257.08,213.4a.68.68,0,0,1-.74.72.69.69,0,0,1-.7-.72.71.71,0,0,1,.73-.73A.69.69,0,0,1,257.08,213.4Zm-1.29,8.21V215.2H257v6.41Z" transform="translate(-170.15 -139.59)"/><path class="cls-3" d="M259.53,218.62a2.06,2.06,0,0,0,2.2,2.23,4.32,4.32,0,0,0,1.78-.33l.2.83a5.32,5.32,0,0,1-2.14.4,3,3,0,0,1-3.15-3.23c0-1.94,1.14-3.46,3-3.46,2.09,0,2.65,1.84,2.65,3a5.05,5.05,0,0,1,0,.54Zm3.42-.83a1.66,1.66,0,0,0-1.61-1.9,1.93,1.93,0,0,0-1.79,1.9Zm-2-5.35,1.17,1.89h-.84l-1.61-1.89Z" transform="translate(-170.15 -139.59)"/><path class="cls-3" d="M265.52,217.2c0-.75,0-1.4,0-2h1l0,1.26h.05a1.93,1.93,0,0,1,1.78-1.4,1.15,1.15,0,0,1,.33,0v1.1a1.59,1.59,0,0,0-.4,0,1.63,1.63,0,0,0-1.56,1.49,3,3,0,0,0-.06.55v3.41h-1.15Z" transform="translate(-170.15 -139.59)"/><path class="cls-3" d="M270.37,218.62a2.06,2.06,0,0,0,2.2,2.23,4.27,4.27,0,0,0,1.77-.33l.2.83a5.26,5.26,0,0,1-2.13.4,3,3,0,0,1-3.15-3.23c0-1.94,1.14-3.46,3-3.46,2.1,0,2.65,1.84,2.65,3a3.31,3.31,0,0,1,0,.54Zm3.42-.83a1.67,1.67,0,0,0-1.62-1.9,1.94,1.94,0,0,0-1.79,1.9Z" transform="translate(-170.15 -139.59)"/><path class="cls-3" d="M282.72,221.61l-.1-.8h0a2.37,2.37,0,0,1-2,.95,1.83,1.83,0,0,1-2-1.84c0-1.55,1.38-2.4,3.86-2.39v-.13a1.32,1.32,0,0,0-1.46-1.48,3.11,3.11,0,0,0-1.67.48l-.26-.77a3.9,3.9,0,0,1,2.1-.57c2,0,2.44,1.34,2.44,2.62v2.4a8.86,8.86,0,0,0,.11,1.53Zm-.18-3.27c-1.27,0-2.71.2-2.71,1.45a1,1,0,0,0,1.1,1.11,1.61,1.61,0,0,0,1.55-1.07,1.24,1.24,0,0,0,.06-.37Z" transform="translate(-170.15 -139.59)"/><path class="cls-3" d="M291.07,215.2c0,.47-.05,1-.05,1.77v3.72a3.67,3.67,0,0,1-.91,2.92,3.39,3.39,0,0,1-2.33.77,4.12,4.12,0,0,1-2.14-.53l.3-.88a3.63,3.63,0,0,0,1.88.5c1.19,0,2.06-.62,2.06-2.24v-.71h0a2.31,2.31,0,0,1-2,1.07,2.87,2.87,0,0,1-2.73-3.13c0-2.17,1.41-3.4,2.88-3.4a2.11,2.11,0,0,1,2,1.11h0l.05-1Zm-1.2,2.53a1.48,1.48,0,0,0-.07-.53,1.68,1.68,0,0,0-1.63-1.23c-1.11,0-1.9.94-1.9,2.43,0,1.25.63,2.3,1.89,2.3a1.71,1.71,0,0,0,1.62-1.19,2.27,2.27,0,0,0,.09-.62Z" transform="translate(-170.15 -139.59)"/><path class="cls-3" d="M292.88,217.2c0-.75,0-1.4-.06-2h1l0,1.26h.06a1.91,1.91,0,0,1,1.77-1.4,1.11,1.11,0,0,1,.33,0v1.1a1.59,1.59,0,0,0-.4,0,1.63,1.63,0,0,0-1.56,1.49,3,3,0,0,0-.05.55v3.41h-1.15Z" transform="translate(-170.15 -139.59)"/><path class="cls-3" d="M297.72,218.62a2.06,2.06,0,0,0,2.2,2.23,4.32,4.32,0,0,0,1.78-.33l.2.83a5.32,5.32,0,0,1-2.14.4,3,3,0,0,1-3.15-3.23c0-1.94,1.14-3.46,3-3.46,2.09,0,2.65,1.84,2.65,3a5.05,5.05,0,0,1,0,.54Zm3.42-.83a1.66,1.66,0,0,0-1.61-1.9,1.93,1.93,0,0,0-1.79,1.9Zm.28-5.35-1.62,1.89H299l1.16-1.89Z" transform="translate(-170.15 -139.59)"/><path class="cls-3" d="M307.26,221.61l-.09-.8h0a2.4,2.4,0,0,1-2,.95,1.82,1.82,0,0,1-2-1.84c0-1.55,1.38-2.4,3.85-2.39v-.13a1.31,1.31,0,0,0-1.45-1.48,3.11,3.11,0,0,0-1.67.48l-.27-.77a3.94,3.94,0,0,1,2.11-.57c2,0,2.44,1.34,2.44,2.62v2.4a8.93,8.93,0,0,0,.1,1.53Zm-.17-3.27c-1.27,0-2.72.2-2.72,1.45a1,1,0,0,0,1.1,1.11,1.59,1.59,0,0,0,1.55-1.07,1.27,1.27,0,0,0,.07-.37Z" transform="translate(-170.15 -139.59)"/><path class="cls-3" d="M310,221.61c0-.43.06-1.08.06-1.65v-7.75h1.15v4h0a2.37,2.37,0,0,1,2.18-1.18c1.59,0,2.72,1.32,2.7,3.27,0,2.29-1.44,3.43-2.87,3.43a2.29,2.29,0,0,1-2.15-1.21h0l-.05,1.06Zm1.21-2.57a2.82,2.82,0,0,0,.05.43,1.8,1.8,0,0,0,1.75,1.36c1.22,0,1.95-1,1.95-2.46,0-1.29-.67-2.38-1.91-2.38a1.85,1.85,0,0,0-1.77,1.43,2,2,0,0,0-.07.47Z" transform="translate(-170.15 -139.59)"/><path class="cls-3" d="M317.63,212.21h1.17v9.4h-1.17Z" transform="translate(-170.15 -139.59)"/><path class="cls-3" d="M321.41,218.62a2.06,2.06,0,0,0,2.2,2.23,4.27,4.27,0,0,0,1.77-.33l.2.83a5.26,5.26,0,0,1-2.13.4,3,3,0,0,1-3.15-3.23c0-1.94,1.14-3.46,3-3.46,2.1,0,2.65,1.84,2.65,3a3.31,3.31,0,0,1,0,.54Zm3.42-.83a1.67,1.67,0,0,0-1.62-1.9,1.94,1.94,0,0,0-1.79,1.9Z" transform="translate(-170.15 -139.59)"/><path class="cls-3" d="M330.85,218.62a2.06,2.06,0,0,0,2.2,2.23,4.32,4.32,0,0,0,1.78-.33l.2.83a5.32,5.32,0,0,1-2.14.4,3,3,0,0,1-3.15-3.23c0-1.94,1.14-3.46,3-3.46,2.09,0,2.65,1.84,2.65,3a5.05,5.05,0,0,1,0,.54Zm3.42-.83a1.66,1.66,0,0,0-1.61-1.9,1.93,1.93,0,0,0-1.79,1.9Z" transform="translate(-170.15 -139.59)"/><path class="cls-3" d="M338.25,213.36v1.84h1.66v.89h-1.66v3.46c0,.79.22,1.24.87,1.24a2.67,2.67,0,0,0,.68-.08l.05.88a2.91,2.91,0,0,1-1,.16,1.62,1.62,0,0,1-1.26-.49,2.4,2.4,0,0,1-.45-1.67v-3.5h-1v-.89h1v-1.53Z" transform="translate(-170.15 -139.59)"/><path class="cls-3" d="M344.15,221.61v-5.52h-.9v-.89h.9v-.3a3,3,0,0,1,.75-2.24,2.24,2.24,0,0,1,1.56-.6,2.71,2.71,0,0,1,1,.19l-.16.9a1.73,1.73,0,0,0-.74-.14c-1,0-1.24.87-1.24,1.85v.34h1.55v.89h-1.55v5.52Z" transform="translate(-170.15 -139.59)"/><path class="cls-3" d="M351.45,221.61l-.09-.8h0a2.4,2.4,0,0,1-2,.95,1.82,1.82,0,0,1-2-1.84c0-1.55,1.38-2.4,3.85-2.39v-.13a1.31,1.31,0,0,0-1.45-1.48,3.11,3.11,0,0,0-1.67.48l-.27-.77a3.94,3.94,0,0,1,2.11-.57c2,0,2.44,1.34,2.44,2.62v2.4a8.93,8.93,0,0,0,.1,1.53Zm-.17-3.27c-1.27,0-2.72.2-2.72,1.45a1,1,0,0,0,1.1,1.11,1.59,1.59,0,0,0,1.55-1.07,1.27,1.27,0,0,0,.07-.37Z" transform="translate(-170.15 -139.59)"/><path class="cls-3" d="M358.86,221.38a4.46,4.46,0,0,1-1.84.37,3,3,0,0,1-3.2-3.27,3.26,3.26,0,0,1,3.45-3.41,3.82,3.82,0,0,1,1.61.33l-.26.9a2.72,2.72,0,0,0-1.35-.3,2.42,2.42,0,0,0,0,4.82,3.25,3.25,0,0,0,1.43-.32Z" transform="translate(-170.15 -139.59)"/><path class="cls-3" d="M361.52,213.4a.72.72,0,1,1-1.44,0,.71.71,0,0,1,.73-.73A.69.69,0,0,1,361.52,213.4Zm-1.3,8.21V215.2h1.17v6.41Z" transform="translate(-170.15 -139.59)"/><path class="cls-3" d="M363.32,212.21h1.17v9.4h-1.17Z" transform="translate(-170.15 -139.59)"/><path class="cls-3" d="M367.1,218.62a2.05,2.05,0,0,0,2.2,2.23,4.31,4.31,0,0,0,1.77-.33l.2.83a5.26,5.26,0,0,1-2.13.4,3,3,0,0,1-3.16-3.23c0-1.94,1.14-3.46,3-3.46,2.09,0,2.65,1.84,2.65,3a5.05,5.05,0,0,1,0,.54Zm3.41-.83a1.65,1.65,0,0,0-1.61-1.9,1.93,1.93,0,0,0-1.79,1.9Z" transform="translate(-170.15 -139.59)"/><path class="cls-3" d="M375.67,220.94a.77.77,0,0,1,.78-.82.76.76,0,0,1,.78.82.77.77,0,0,1-.78.82A.78.78,0,0,1,375.67,220.94ZM376,219l-.19-6.35h1.27L376.9,219Z" transform="translate(-170.15 -139.59)"/><path class="cls-3" d="M432.7,248.25h1.05v7.21h3.45v.87h-4.5Z" transform="translate(-170.15 -139.59)"/><path class="cls-3" d="M438.75,253.62a1.86,1.86,0,0,0,2,2,3.8,3.8,0,0,0,1.61-.3l.18.75a4.67,4.67,0,0,1-1.93.36,2.69,2.69,0,0,1-2.86-2.92c0-1.75,1-3.13,2.73-3.13a2.45,2.45,0,0,1,2.39,2.73,4.49,4.49,0,0,1,0,.49Zm3.09-.75a1.5,1.5,0,0,0-1.46-1.72,1.76,1.76,0,0,0-1.62,1.72Z" transform="translate(-170.15 -139.59)"/><path class="cls-3" d="M444,255.25a2.69,2.69,0,0,0,1.39.42c.77,0,1.13-.38,1.13-.86s-.3-.78-1.08-1.07c-1-.37-1.54-.94-1.54-1.64a1.79,1.79,0,0,1,2-1.7,2.83,2.83,0,0,1,1.43.36l-.27.76a2.32,2.32,0,0,0-1.19-.33c-.62,0-1,.36-1,.79s.35.7,1.11,1c1,.39,1.52.89,1.52,1.75,0,1-.79,1.74-2.17,1.74a3.27,3.27,0,0,1-1.63-.39Z" transform="translate(-170.15 -139.59)"/><path class="cls-3" d="M451.47,252.1c0-.6,0-1.09-.05-1.57h.93l0,.93h0a2,2,0,0,1,1.82-1.06,1.74,1.74,0,0,1,1.65,1.16h0a2.46,2.46,0,0,1,.65-.76,2,2,0,0,1,1.28-.4c.77,0,1.91.5,1.91,2.52v3.41h-1v-3.28c0-1.12-.41-1.79-1.26-1.79a1.36,1.36,0,0,0-1.25,1,1.69,1.69,0,0,0-.08.53v3.58h-1v-3.47c0-.93-.4-1.6-1.21-1.6a1.43,1.43,0,0,0-1.3,1.06,1.4,1.4,0,0,0-.09.51v3.5h-1Z" transform="translate(-170.15 -139.59)"/><path class="cls-3" d="M466.34,254.75c0,.6,0,1.13,0,1.58h-.93l-.06-.94h0a2.18,2.18,0,0,1-1.91,1.08c-.92,0-2-.51-2-2.55v-3.39h1.06v3.21c0,1.11.33,1.85,1.29,1.85a1.52,1.52,0,0,0,1.39-1,1.57,1.57,0,0,0,.1-.54v-3.56h1.06Z" transform="translate(-170.15 -139.59)"/><path class="cls-3" d="M468,255.25a2.69,2.69,0,0,0,1.39.42c.77,0,1.12-.38,1.12-.86s-.29-.78-1.07-1.07c-1.05-.37-1.54-.94-1.54-1.64a1.79,1.79,0,0,1,2-1.7,2.81,2.81,0,0,1,1.43.36l-.26.76a2.32,2.32,0,0,0-1.19-.33c-.62,0-1,.36-1,.79s.35.7,1.1,1c1,.39,1.52.89,1.52,1.75,0,1-.79,1.74-2.17,1.74a3.33,3.33,0,0,1-1.63-.39Z" transform="translate(-170.15 -139.59)"/><path class="cls-3" d="M474,248.9a.66.66,0,0,1-1.31,0,.65.65,0,0,1,.66-.66A.63.63,0,0,1,474,248.9Zm-1.18,7.43v-5.8h1.06v5.8Z" transform="translate(-170.15 -139.59)"/><path class="cls-3" d="M479.79,256.12a4,4,0,0,1-1.67.33,2.75,2.75,0,0,1-2.89-3,2.94,2.94,0,0,1,3.12-3.08,3.44,3.44,0,0,1,1.46.3l-.24.81a2.5,2.5,0,0,0-1.22-.27,2,2,0,0,0-2.05,2.19,2,2,0,0,0,2,2.17,3.07,3.07,0,0,0,1.3-.28Z" transform="translate(-170.15 -139.59)"/><path class="cls-3" d="M482.2,248.9a.62.62,0,0,1-.67.65.63.63,0,0,1-.64-.65.65.65,0,0,1,.66-.66A.63.63,0,0,1,482.2,248.9ZM481,256.33v-5.8h1.05v5.8Z" transform="translate(-170.15 -139.59)"/><path class="cls-3" d="M484.42,253.62a1.87,1.87,0,0,0,2,2,3.8,3.8,0,0,0,1.61-.3l.18.75a4.67,4.67,0,0,1-1.93.36,2.69,2.69,0,0,1-2.86-2.92c0-1.75,1-3.13,2.73-3.13a2.46,2.46,0,0,1,2.4,2.73,4,4,0,0,1,0,.49Zm3.1-.75a1.51,1.51,0,0,0-1.47-1.72,1.77,1.77,0,0,0-1.62,1.72Z" transform="translate(-170.15 -139.59)"/><path class="cls-3" d="M489.85,252.1c0-.6,0-1.09-.05-1.57h.93l.06,1h0a2.14,2.14,0,0,1,1.92-1.09c.8,0,2.05.48,2.05,2.47v3.46h-1.06V253c0-.94-.35-1.72-1.34-1.72a1.5,1.5,0,0,0-1.42,1.08,1.75,1.75,0,0,0-.07.49v3.49h-1Z" transform="translate(-170.15 -139.59)"/><path class="cls-3" d="M496.36,255.25a2.72,2.72,0,0,0,1.39.42c.77,0,1.13-.38,1.13-.86s-.3-.78-1.08-1.07c-1-.37-1.53-.94-1.53-1.64a1.78,1.78,0,0,1,2-1.7,2.83,2.83,0,0,1,1.43.36l-.27.76a2.25,2.25,0,0,0-1.18-.33c-.63,0-1,.36-1,.79s.35.7,1.11,1c1,.39,1.52.89,1.52,1.75,0,1-.79,1.74-2.17,1.74a3.3,3.3,0,0,1-1.63-.39Z" transform="translate(-170.15 -139.59)"/><path class="cls-3" d="M503.71,252.7v.78h-3v-.78Z" transform="translate(-170.15 -139.59)"/><path class="cls-3" d="M505.75,253.62a1.86,1.86,0,0,0,2,2,3.75,3.75,0,0,0,1.6-.3l.18.75a4.63,4.63,0,0,1-1.93.36,2.69,2.69,0,0,1-2.85-2.92c0-1.75,1-3.13,2.72-3.13a2.45,2.45,0,0,1,2.4,2.73,4,4,0,0,1,0,.49Zm3.09-.75a1.51,1.51,0,0,0-1.46-1.72,1.75,1.75,0,0,0-1.62,1.72Z" transform="translate(-170.15 -139.59)"/><path class="cls-3" d="M511.17,252.1c0-.6,0-1.09-.05-1.57h.94l.06,1h0a2.14,2.14,0,0,1,1.92-1.09c.8,0,2.05.48,2.05,2.47v3.46h-1.05V253c0-.94-.35-1.72-1.35-1.72a1.5,1.5,0,0,0-1.41,1.08,1.44,1.44,0,0,0-.08.49v3.49h-1.05Z" transform="translate(-170.15 -139.59)"/><path class="cls-3" d="M517.69,255.25a2.69,2.69,0,0,0,1.39.42c.76,0,1.12-.38,1.12-.86s-.3-.78-1.08-1.07c-1-.37-1.53-.94-1.53-1.64a1.79,1.79,0,0,1,2-1.7,2.81,2.81,0,0,1,1.43.36l-.26.76a2.32,2.32,0,0,0-1.19-.33c-.62,0-1,.36-1,.79s.35.7,1.1,1c1,.39,1.52.89,1.52,1.75,0,1-.79,1.74-2.17,1.74a3.33,3.33,0,0,1-1.63-.39Z" transform="translate(-170.15 -139.59)"/><path class="cls-3" d="M523.17,253.62a1.86,1.86,0,0,0,2,2,3.8,3.8,0,0,0,1.61-.3l.18.75a4.67,4.67,0,0,1-1.93.36,2.69,2.69,0,0,1-2.86-2.92c0-1.75,1-3.13,2.72-3.13a2.45,2.45,0,0,1,2.4,2.73,4.49,4.49,0,0,1,0,.49Zm3.09-.75a1.5,1.5,0,0,0-1.46-1.72,1.76,1.76,0,0,0-1.62,1.72Z" transform="translate(-170.15 -139.59)"/><path class="cls-3" d="M529.77,248.9a.62.62,0,0,1-.67.65.63.63,0,0,1-.64-.65.65.65,0,0,1,.66-.66A.63.63,0,0,1,529.77,248.9Zm-1.18,7.43v-5.8h1.06v5.8Z" transform="translate(-170.15 -139.59)"/><path class="cls-3" d="M536.4,250.53c0,.42,0,.89,0,1.59v3.37a3.33,3.33,0,0,1-.82,2.65,3.08,3.08,0,0,1-2.11.7,3.73,3.73,0,0,1-1.93-.48l.26-.8a3.25,3.25,0,0,0,1.7.45c1.08,0,1.87-.56,1.87-2v-.65h0a2.08,2.08,0,0,1-1.85,1,2.59,2.59,0,0,1-2.47-2.83,2.78,2.78,0,0,1,2.62-3.08,1.93,1.93,0,0,1,1.81,1h0l.05-.87Zm-1.09,2.29a1.44,1.44,0,0,0-.06-.48,1.53,1.53,0,0,0-1.47-1.12c-1,0-1.73.86-1.73,2.2,0,1.14.57,2.09,1.71,2.09a1.55,1.55,0,0,0,1.47-1.08,1.87,1.87,0,0,0,.08-.57Z" transform="translate(-170.15 -139.59)"/><path class="cls-3" d="M538,252.1c0-.6,0-1.09,0-1.57h.93l.06,1h0a2.14,2.14,0,0,1,1.92-1.09c.8,0,2.05.48,2.05,2.47v3.46h-1.06V253c0-.94-.34-1.72-1.34-1.72a1.5,1.5,0,0,0-1.42,1.08,1.75,1.75,0,0,0-.07.49v3.49H538Z" transform="translate(-170.15 -139.59)"/><path class="cls-3" d="M547.91,256.33l-.08-.73h0a2.15,2.15,0,0,1-1.77.87,1.66,1.66,0,0,1-1.78-1.67c0-1.4,1.25-2.17,3.49-2.16v-.12a1.19,1.19,0,0,0-1.32-1.34,2.84,2.84,0,0,0-1.51.43l-.24-.7a3.63,3.63,0,0,1,1.91-.51c1.77,0,2.2,1.21,2.2,2.37v2.17a8.24,8.24,0,0,0,.1,1.39Zm-.16-3c-1.15,0-2.45.18-2.45,1.31a.93.93,0,0,0,1,1,1.45,1.45,0,0,0,1.41-1,1.2,1.2,0,0,0,0-.33Z" transform="translate(-170.15 -139.59)"/><path class="cls-3" d="M550.48,252.1c0-.6,0-1.09-.05-1.57h.94l.06,1h0a2.14,2.14,0,0,1,1.92-1.09c.8,0,2,.48,2,2.47v3.46h-1V253c0-.94-.35-1.72-1.35-1.72a1.5,1.5,0,0,0-1.41,1.08,1.45,1.45,0,0,0-.07.49v3.49h-1.06Z" transform="translate(-170.15 -139.59)"/><path class="cls-3" d="M558.36,248.86v1.67h1.52v.8h-1.52v3.13c0,.72.21,1.13.8,1.13a2.68,2.68,0,0,0,.61-.07l.05.79a2.73,2.73,0,0,1-.94.14,1.45,1.45,0,0,1-1.14-.44,2.15,2.15,0,0,1-.41-1.51v-3.17h-.9v-.8h.9v-1.39Z" transform="translate(-170.15 -139.59)"/><path class="cls-3" d="M560.92,255.25a2.69,2.69,0,0,0,1.39.42c.77,0,1.13-.38,1.13-.86s-.3-.78-1.08-1.07c-1-.37-1.53-.94-1.53-1.64a1.78,1.78,0,0,1,2-1.7,2.77,2.77,0,0,1,1.42.36l-.26.76a2.32,2.32,0,0,0-1.19-.33c-.62,0-1,.36-1,.79s.35.7,1.11,1c1,.39,1.52.89,1.52,1.75,0,1-.79,1.74-2.17,1.74a3.3,3.3,0,0,1-1.63-.39Z" transform="translate(-170.15 -139.59)"/><path class="cls-3" d="M565,257.81a16.49,16.49,0,0,0,.72-2.87l1.18-.12a15.48,15.48,0,0,1-1.14,2.92Z" transform="translate(-170.15 -139.59)"/><path class="cls-3" d="M419.46,270.73v-5h-.81v-.8h.81v-.28a2.72,2.72,0,0,1,.67-2,2,2,0,0,1,1.42-.54,2.59,2.59,0,0,1,.9.16l-.15.82a1.58,1.58,0,0,0-.67-.13c-.9,0-1.13.79-1.13,1.68v.31h1.41v.8H420.5v5Z" transform="translate(-170.15 -139.59)"/><path class="cls-3" d="M426.07,270.73,426,270h0a2.15,2.15,0,0,1-1.77.87,1.66,1.66,0,0,1-1.78-1.67c0-1.41,1.25-2.17,3.49-2.16v-.12a1.19,1.19,0,0,0-1.32-1.34,2.84,2.84,0,0,0-1.51.43l-.24-.7a3.63,3.63,0,0,1,1.91-.51c1.77,0,2.2,1.21,2.2,2.37v2.17a8.24,8.24,0,0,0,.1,1.39Zm-.15-3c-1.16,0-2.46.18-2.46,1.31a.93.93,0,0,0,1,1,1.45,1.45,0,0,0,1.41-1,1.2,1.2,0,0,0,.06-.33Z" transform="translate(-170.15 -139.59)"/><path class="cls-3" d="M429.82,263.3a.66.66,0,0,1-1.31,0,.65.65,0,0,1,.66-.66A.63.63,0,0,1,429.82,263.3Zm-1.18,7.43v-5.8h1.06v5.8Z" transform="translate(-170.15 -139.59)"/><path class="cls-3" d="M432.72,263.26v1.67h1.51v.8h-1.51v3.13c0,.72.2,1.13.79,1.13a2.6,2.6,0,0,0,.61-.07l.05.79a2.67,2.67,0,0,1-.93.14,1.45,1.45,0,0,1-1.14-.44,2.15,2.15,0,0,1-.41-1.51v-3.17h-.9v-.8h.9v-1.39Z" transform="translate(-170.15 -139.59)"/><path class="cls-3" d="M435.94,268a1.86,1.86,0,0,0,2,2,3.83,3.83,0,0,0,1.61-.3l.18.75a4.72,4.72,0,0,1-1.94.36,2.69,2.69,0,0,1-2.85-2.92c0-1.75,1-3.13,2.72-3.13a2.45,2.45,0,0,1,2.4,2.73,4.49,4.49,0,0,1,0,.49Zm3.09-.75a1.5,1.5,0,0,0-1.46-1.72,1.75,1.75,0,0,0-1.62,1.72Z" transform="translate(-170.15 -139.59)"/><path class="cls-3" d="M441.22,269.65a2.69,2.69,0,0,0,1.39.42c.77,0,1.13-.38,1.13-.86s-.3-.78-1.08-1.07c-1.05-.37-1.54-.94-1.54-1.64a1.79,1.79,0,0,1,2-1.7,2.81,2.81,0,0,1,1.43.36l-.26.76a2.32,2.32,0,0,0-1.19-.33c-.62,0-1,.36-1,.79s.35.7,1.1,1c1,.39,1.53.89,1.53,1.75,0,1-.8,1.74-2.18,1.74a3.33,3.33,0,0,1-1.63-.39Z" transform="translate(-170.15 -139.59)"/><path class="cls-3" d="M448.56,267.1v.78h-3v-.78Z" transform="translate(-170.15 -139.59)"/><path class="cls-3" d="M450.15,264.93l1.14,3.26a15.54,15.54,0,0,1,.46,1.49h0c.13-.48.3-1,.49-1.49l1.13-3.26h1.1l-2.28,5.8h-1l-2.2-5.8Z" transform="translate(-170.15 -139.59)"/><path class="cls-3" d="M460.64,267.78a2.84,2.84,0,0,1-2.89,3.09,2.76,2.76,0,0,1-2.78-3,2.83,2.83,0,0,1,2.88-3.08A2.74,2.74,0,0,1,460.64,267.78Zm-4.6.06c0,1.27.73,2.23,1.76,2.23s1.76-.94,1.76-2.25c0-1-.49-2.23-1.74-2.23S456,266.74,456,267.84Z" transform="translate(-170.15 -139.59)"/><path class="cls-3" d="M466.83,269.15c0,.6,0,1.13.05,1.58H466l-.06-.94h0a2.18,2.18,0,0,1-1.92,1.08c-.91,0-2-.51-2-2.55v-3.39H463v3.21c0,1.11.33,1.85,1.29,1.85a1.52,1.52,0,0,0,1.39-1,1.57,1.57,0,0,0,.1-.54v-3.56h1.05Z" transform="translate(-170.15 -139.59)"/><path class="cls-3" d="M468.45,269.65a2.69,2.69,0,0,0,1.39.42c.76,0,1.12-.38,1.12-.86s-.3-.78-1.08-1.07c-1-.37-1.53-.94-1.53-1.64a1.78,1.78,0,0,1,2-1.7,2.81,2.81,0,0,1,1.43.36l-.26.76a2.32,2.32,0,0,0-1.19-.33c-.63,0-1,.36-1,.79s.34.7,1.1,1c1,.39,1.52.89,1.52,1.75,0,1-.79,1.74-2.17,1.74a3.33,3.33,0,0,1-1.63-.39Z" transform="translate(-170.15 -139.59)"/><path class="cls-3" d="M480,270.52a3.94,3.94,0,0,1-1.66.33,2.76,2.76,0,0,1-2.9-3,3,3,0,0,1,3.12-3.08,3.45,3.45,0,0,1,1.47.3l-.24.81a2.54,2.54,0,0,0-1.23-.27,2.19,2.19,0,0,0,0,4.36,3,3,0,0,0,1.29-.28Z" transform="translate(-170.15 -139.59)"/><path class="cls-3" d="M486.44,267.78a2.84,2.84,0,0,1-2.89,3.09,2.76,2.76,0,0,1-2.78-3,2.83,2.83,0,0,1,2.88-3.08A2.75,2.75,0,0,1,486.44,267.78Zm-4.6.06c0,1.27.73,2.23,1.76,2.23s1.76-.94,1.76-2.25c0-1-.49-2.23-1.74-2.23S481.84,266.74,481.84,267.84Z" transform="translate(-170.15 -139.59)"/><path class="cls-3" d="M487.78,266.5c0-.6,0-1.09,0-1.57h.93l.06,1h0a2.14,2.14,0,0,1,1.92-1.09c.8,0,2.05.48,2.05,2.47v3.46h-1.06v-3.34c0-.94-.34-1.72-1.34-1.72a1.5,1.5,0,0,0-1.42,1.08,1.75,1.75,0,0,0-.07.49v3.49h-1.05Z" transform="translate(-170.15 -139.59)"/><path class="cls-3" d="M494.44,266.5c0-.6,0-1.09-.05-1.57h.93l.06,1h0a2.14,2.14,0,0,1,1.92-1.09c.8,0,2.05.48,2.05,2.47v3.46h-1.06v-3.34c0-.94-.34-1.72-1.34-1.72a1.5,1.5,0,0,0-1.42,1.08,1.75,1.75,0,0,0-.07.49v3.49h-1.05Z" transform="translate(-170.15 -139.59)"/><path class="cls-3" d="M504.31,270.73l-.08-.73h0a2.15,2.15,0,0,1-1.77.87,1.66,1.66,0,0,1-1.78-1.67c0-1.41,1.25-2.17,3.49-2.16v-.12a1.19,1.19,0,0,0-1.32-1.34,2.84,2.84,0,0,0-1.51.43l-.24-.7a3.63,3.63,0,0,1,1.91-.51c1.77,0,2.2,1.21,2.2,2.37v2.17a8.24,8.24,0,0,0,.1,1.39Zm-.15-3c-1.16,0-2.46.18-2.46,1.31a.93.93,0,0,0,1,1,1.45,1.45,0,0,0,1.41-1,1.2,1.2,0,0,0,.06-.33Z" transform="translate(-170.15 -139.59)"/><path class="cls-3" d="M507.77,262.42l1.15,1.72h-.81l-.7-1.14h0l-.7,1.14h-.78l1.13-1.72Zm-.89,8.31v-5.8h1.06v5.8Z" transform="translate(-170.15 -139.59)"/><path class="cls-3" d="M511,263.26v1.67h1.51v.8H511v3.13c0,.72.2,1.13.79,1.13a2.6,2.6,0,0,0,.61-.07l0,.79a2.67,2.67,0,0,1-.93.14,1.44,1.44,0,0,1-1.14-.44,2.15,2.15,0,0,1-.41-1.51v-3.17H509v-.8h.9v-1.39Z" transform="translate(-170.15 -139.59)"/><path class="cls-3" d="M513.66,266.74c0-.68,0-1.27,0-1.81h.93l0,1.14h0a1.74,1.74,0,0,1,1.61-1.27,1.39,1.39,0,0,1,.3,0v1a1.32,1.32,0,0,0-.36,0,1.49,1.49,0,0,0-1.42,1.36,3.47,3.47,0,0,0,0,.49v3.09h-1.05Z" transform="translate(-170.15 -139.59)"/><path class="cls-3" d="M518.05,268a1.87,1.87,0,0,0,2,2,3.8,3.8,0,0,0,1.61-.3l.18.75a4.67,4.67,0,0,1-1.93.36,2.69,2.69,0,0,1-2.85-2.92c0-1.75,1-3.13,2.72-3.13a2.46,2.46,0,0,1,2.4,2.73,4,4,0,0,1,0,.49Zm3.1-.75a1.51,1.51,0,0,0-1.47-1.72,1.75,1.75,0,0,0-1.61,1.72Z" transform="translate(-170.15 -139.59)"/><path class="cls-3" d="M531,264.93c0,.42,0,.89,0,1.59v3.37a3.33,3.33,0,0,1-.82,2.65,3.08,3.08,0,0,1-2.11.7,3.79,3.79,0,0,1-1.94-.48l.27-.8a3.25,3.25,0,0,0,1.7.45c1.08,0,1.87-.56,1.87-2v-.65h0a2.08,2.08,0,0,1-1.85,1,2.59,2.59,0,0,1-2.47-2.83,2.78,2.78,0,0,1,2.62-3.08,1.93,1.93,0,0,1,1.81,1h0l.05-.87Zm-1.09,2.29a1.44,1.44,0,0,0-.06-.48,1.53,1.53,0,0,0-1.47-1.12c-1,0-1.73.86-1.73,2.2,0,1.14.57,2.09,1.71,2.09a1.55,1.55,0,0,0,1.47-1.08,1.87,1.87,0,0,0,.08-.57Z" transform="translate(-170.15 -139.59)"/><path class="cls-3" d="M532.66,266.74c0-.68,0-1.27,0-1.81h.92l0,1.14h0a1.74,1.74,0,0,1,1.6-1.27,1.32,1.32,0,0,1,.3,0v1a1.23,1.23,0,0,0-.36,0,1.48,1.48,0,0,0-1.41,1.36,2.38,2.38,0,0,0,0,.49v3.09h-1Z" transform="translate(-170.15 -139.59)"/><path class="cls-3" d="M539.74,270.73l-.09-.73h0a2.17,2.17,0,0,1-1.78.87,1.65,1.65,0,0,1-1.77-1.67c0-1.41,1.24-2.17,3.49-2.16v-.12a1.2,1.2,0,0,0-1.32-1.34,2.87,2.87,0,0,0-1.52.43l-.23-.7a3.57,3.57,0,0,1,1.9-.51c1.78,0,2.21,1.21,2.21,2.37v2.17a8.32,8.32,0,0,0,.09,1.39Zm-.9-8.31,1.15,1.72h-.81l-.69-1.14h0l-.69,1.14H537l1.12-1.72Zm.74,5.35c-1.15,0-2.46.18-2.46,1.31a.94.94,0,0,0,1,1,1.44,1.44,0,0,0,1.4-1,.92.92,0,0,0,.06-.33Z" transform="translate(-170.15 -139.59)"/><path class="cls-3" d="M546.44,270.52a3.9,3.9,0,0,1-1.66.33,2.75,2.75,0,0,1-2.89-3,2.94,2.94,0,0,1,3.11-3.08,3.45,3.45,0,0,1,1.47.3l-.24.81a2.51,2.51,0,0,0-1.23-.27,2.19,2.19,0,0,0,0,4.36,3,3,0,0,0,1.29-.28Z" transform="translate(-170.15 -139.59)"/><path class="cls-3" d="M548.2,268a1.86,1.86,0,0,0,2,2,3.75,3.75,0,0,0,1.6-.3l.18.75a4.63,4.63,0,0,1-1.93.36,2.69,2.69,0,0,1-2.85-2.92c0-1.75,1-3.13,2.72-3.13a2.45,2.45,0,0,1,2.4,2.73,2.63,2.63,0,0,1,0,.49Zm3.09-.75a1.51,1.51,0,0,0-1.46-1.72,1.75,1.75,0,0,0-1.62,1.72Z" transform="translate(-170.15 -139.59)"/><path class="cls-3" d="M559.38,270.73l-.09-.73h0a2.17,2.17,0,0,1-1.78.87,1.65,1.65,0,0,1-1.77-1.67c0-1.41,1.25-2.17,3.49-2.16v-.12a1.19,1.19,0,0,0-1.32-1.34,2.84,2.84,0,0,0-1.51.43l-.24-.7a3.61,3.61,0,0,1,1.91-.51c1.77,0,2.2,1.21,2.2,2.37v2.17a8.24,8.24,0,0,0,.1,1.39Zm-1.79-8.31,1,1.72h-.74l-1.46-1.72Zm1.63,5.35c-1.15,0-2.46.18-2.46,1.31a.94.94,0,0,0,1,1,1.42,1.42,0,0,0,1.4-1,.92.92,0,0,0,.06-.33Z" transform="translate(-170.15 -139.59)"/><path class="cls-3" d="M564.9,264.93l1.14,3.26c.19.53.35,1,.47,1.49h0c.14-.48.3-1,.5-1.49l1.12-3.26h1.11l-2.28,5.8h-1l-2.21-5.8Z" transform="translate(-170.15 -139.59)"/><path class="cls-3" d="M575.4,267.78a2.84,2.84,0,0,1-2.89,3.09,2.77,2.77,0,0,1-2.79-3,2.84,2.84,0,0,1,2.88-3.08A2.75,2.75,0,0,1,575.4,267.78Zm-4.61.06c0,1.27.73,2.23,1.76,2.23s1.77-.94,1.77-2.25c0-1-.49-2.23-1.74-2.23S570.79,266.74,570.79,267.84Z" transform="translate(-170.15 -139.59)"/><path class="cls-3" d="M576.59,269.65a2.69,2.69,0,0,0,1.39.42c.77,0,1.13-.38,1.13-.86s-.3-.78-1.08-1.07c-1-.37-1.54-.94-1.54-1.64a1.79,1.79,0,0,1,2-1.7,2.79,2.79,0,0,1,1.42.36l-.26.76a2.32,2.32,0,0,0-1.19-.33c-.62,0-1,.36-1,.79s.35.7,1.1,1c1,.39,1.53.89,1.53,1.75,0,1-.8,1.74-2.17,1.74a3.34,3.34,0,0,1-1.64-.39Z" transform="translate(-170.15 -139.59)"/><path class="cls-3" d="M411.69,280.9c0-.6,0-1.09-.05-1.57h.92l.05.93h0a2,2,0,0,1,1.82-1.06,1.71,1.71,0,0,1,1.64,1.16h0a2.31,2.31,0,0,1,.64-.76,2,2,0,0,1,1.29-.4c.76,0,1.9.5,1.9,2.52v3.41h-1v-3.28c0-1.12-.41-1.79-1.26-1.79a1.34,1.34,0,0,0-1.24,1,1.63,1.63,0,0,0-.09.53v3.58h-1v-3.48c0-.92-.41-1.59-1.21-1.59a1.45,1.45,0,0,0-1.31,1.06,1.4,1.4,0,0,0-.08.51v3.5h-1Z" transform="translate(-170.15 -139.59)"/><path class="cls-3" d="M422.28,282.42a1.87,1.87,0,0,0,2,2,3.8,3.8,0,0,0,1.61-.3l.18.75a4.67,4.67,0,0,1-1.93.36,2.69,2.69,0,0,1-2.86-2.92c0-1.75,1-3.13,2.73-3.13a2.46,2.46,0,0,1,2.4,2.73,4.15,4.15,0,0,1,0,.49Zm3.1-.75a1.51,1.51,0,0,0-1.47-1.72,1.76,1.76,0,0,0-1.62,1.72Zm.25-4.85-1.47,1.72h-.75l1-1.72Z" transform="translate(-170.15 -139.59)"/><path class="cls-3" d="M427.71,276.62h1.05v8.51h-1.05Z" transform="translate(-170.15 -139.59)"/><path class="cls-3" d="M435.79,282.18a2.84,2.84,0,0,1-2.89,3.09,2.76,2.76,0,0,1-2.78-3A2.83,2.83,0,0,1,433,279.2,2.75,2.75,0,0,1,435.79,282.18Zm-4.61.06c0,1.27.74,2.23,1.77,2.23s1.76-.94,1.76-2.25c0-1-.49-2.23-1.74-2.23S431.18,281.14,431.18,282.24Z" transform="translate(-170.15 -139.59)"/><path class="cls-3" d="M442.14,276.62v7c0,.52,0,1.11.05,1.5h-.95l-.05-1h0a2.17,2.17,0,0,1-2,1.14c-1.4,0-2.48-1.19-2.48-3,0-1.93,1.18-3.11,2.6-3.11a2,2,0,0,1,1.75.88h0v-3.46Zm-1.06,5.07a2.18,2.18,0,0,0,0-.44,1.57,1.57,0,0,0-1.53-1.23c-1.09,0-1.74,1-1.74,2.25s.58,2.14,1.72,2.14a1.59,1.59,0,0,0,1.55-1.26,2.09,2.09,0,0,0,0-.45Z" transform="translate(-170.15 -139.59)"/><path class="cls-3" d="M445.07,277.7a.62.62,0,0,1-.67.65.63.63,0,0,1-.64-.65.65.65,0,0,1,.66-.66A.63.63,0,0,1,445.07,277.7Zm-1.18,7.43v-5.8H445v5.8Z" transform="translate(-170.15 -139.59)"/><path class="cls-3" d="M447.29,282.42a1.86,1.86,0,0,0,2,2,3.8,3.8,0,0,0,1.61-.3l.18.75a4.67,4.67,0,0,1-1.93.36,2.69,2.69,0,0,1-2.86-2.92c0-1.75,1-3.13,2.72-3.13a2.45,2.45,0,0,1,2.4,2.73,4.68,4.68,0,0,1,0,.49Zm3.09-.75a1.5,1.5,0,0,0-1.46-1.72,1.75,1.75,0,0,0-1.62,1.72Z" transform="translate(-170.15 -139.59)"/><path class="cls-3" d="M452.57,284.05a2.69,2.69,0,0,0,1.39.42c.77,0,1.13-.38,1.13-.86s-.3-.78-1.08-1.07c-1.05-.37-1.54-.94-1.54-1.64a1.79,1.79,0,0,1,2-1.7,2.79,2.79,0,0,1,1.42.36l-.26.76a2.32,2.32,0,0,0-1.19-.33c-.62,0-1,.36-1,.79s.35.7,1.1,1c1,.39,1.53.89,1.53,1.75,0,1-.79,1.74-2.17,1.74a3.27,3.27,0,0,1-1.63-.39Z" transform="translate(-170.15 -139.59)"/><path class="cls-3" d="M464,284.23h0a2.06,2.06,0,0,1-1.89,1c-1.36,0-2.46-1.18-2.46-2.94,0-2.17,1.4-3.13,2.63-3.13a1.9,1.9,0,0,1,1.78,1h0l0-.87h1c0,.49,0,1,0,1.59v6.59h-1Zm0-2.55a1.61,1.61,0,0,0-.05-.44,1.54,1.54,0,0,0-1.51-1.2c-1.09,0-1.75.92-1.75,2.23,0,1.15.55,2.16,1.71,2.16a1.56,1.56,0,0,0,1.51-1.16,1.64,1.64,0,0,0,.09-.5Z" transform="translate(-170.15 -139.59)"/><path class="cls-3" d="M471.62,283.55c0,.6,0,1.13.05,1.58h-.94l-.06-.94h0a2.2,2.2,0,0,1-1.92,1.08c-.91,0-2-.51-2-2.55v-3.39h1v3.21c0,1.11.34,1.85,1.3,1.85a1.52,1.52,0,0,0,1.39-1,1.57,1.57,0,0,0,.1-.54v-3.56h1.05Z" transform="translate(-170.15 -139.59)"/><path class="cls-3" d="M474.55,277.7a.65.65,0,1,1-1.3,0,.64.64,0,0,1,.65-.66A.63.63,0,0,1,474.55,277.7Zm-1.17,7.43v-5.8h1.05v5.8Z" transform="translate(-170.15 -139.59)"/><path class="cls-3" d="M478.58,284.05a2.76,2.76,0,0,0,1.4.42c.76,0,1.12-.38,1.12-.86s-.3-.78-1.08-1.07c-1-.37-1.53-.94-1.53-1.64a1.78,1.78,0,0,1,2-1.7,2.83,2.83,0,0,1,1.43.36l-.26.76a2.32,2.32,0,0,0-1.19-.33c-.63,0-1,.36-1,.79s.34.7,1.1,1c1,.39,1.52.89,1.52,1.75,0,1-.79,1.74-2.17,1.74a3.33,3.33,0,0,1-1.63-.39Z" transform="translate(-170.15 -139.59)"/><path class="cls-3" d="M484.07,282.42a1.86,1.86,0,0,0,2,2,3.83,3.83,0,0,0,1.61-.3l.18.75a4.71,4.71,0,0,1-1.93.36,2.69,2.69,0,0,1-2.86-2.92c0-1.75,1-3.13,2.72-3.13a2.45,2.45,0,0,1,2.4,2.73,4.68,4.68,0,0,1,0,.49Zm3.09-.75A1.5,1.5,0,0,0,485.7,280a1.75,1.75,0,0,0-1.62,1.72Z" transform="translate(-170.15 -139.59)"/><path class="cls-3" d="M489.49,281.14c0-.68,0-1.27-.05-1.81h.93l0,1.14h.05a1.75,1.75,0,0,1,1.61-1.27,1.39,1.39,0,0,1,.3,0v1a1.32,1.32,0,0,0-.36,0,1.5,1.5,0,0,0-1.42,1.36,3.47,3.47,0,0,0,0,.49v3.09h-1.05Z" transform="translate(-170.15 -139.59)"/><path class="cls-3" d="M498.55,282.18a2.84,2.84,0,0,1-2.89,3.09,2.76,2.76,0,0,1-2.78-3,2.83,2.83,0,0,1,2.87-3.08A2.75,2.75,0,0,1,498.55,282.18Zm-4.61.06c0,1.27.74,2.23,1.77,2.23s1.76-.94,1.76-2.25c0-1-.49-2.23-1.74-2.23S493.94,281.14,493.94,282.24Z" transform="translate(-170.15 -139.59)"/><path class="cls-3" d="M499.88,280.9c0-.6,0-1.09,0-1.57h.93l.06,1h0a2.12,2.12,0,0,1,1.91-1.09c.81,0,2.06.48,2.06,2.47v3.46h-1.06v-3.34c0-.94-.35-1.72-1.34-1.72a1.5,1.5,0,0,0-1.42,1.08,1.45,1.45,0,0,0-.07.49v3.49h-1.06Z" transform="translate(-170.15 -139.59)"/><path class="cls-3" d="M507.77,277.66v1.67h1.51v.8h-1.51v3.13c0,.72.2,1.13.79,1.13a2.68,2.68,0,0,0,.61-.07l.05.79a2.69,2.69,0,0,1-.94.14,1.47,1.47,0,0,1-1.14-.44,2.15,2.15,0,0,1-.4-1.51v-3.17h-.9v-.8h.9v-1.39Z" transform="translate(-170.15 -139.59)"/><path class="cls-3" d="M516.23,285.13l-.09-.73h0a2.17,2.17,0,0,1-1.78.87,1.65,1.65,0,0,1-1.77-1.67c0-1.41,1.24-2.17,3.49-2.16v-.12a1.19,1.19,0,0,0-1.32-1.34,2.81,2.81,0,0,0-1.51.43l-.24-.7a3.6,3.6,0,0,1,1.9-.51c1.78,0,2.21,1.21,2.21,2.37v2.17a7.31,7.31,0,0,0,.1,1.39Zm-.16-3c-1.15,0-2.46.18-2.46,1.31a.94.94,0,0,0,1,1,1.44,1.44,0,0,0,1.4-1,.92.92,0,0,0,.06-.33Z" transform="translate(-170.15 -139.59)"/><path class="cls-3" d="M518.8,281.22c0-.74,0-1.34,0-1.89h1l0,1h0a2.28,2.28,0,0,1,2.06-1.12c1.4,0,2.46,1.18,2.46,2.95,0,2.08-1.27,3.12-2.64,3.12a2,2,0,0,1-1.79-.92h0v3.16h-1Zm1,1.55a1.88,1.88,0,0,0,0,.43,1.63,1.63,0,0,0,1.58,1.24c1.12,0,1.76-.91,1.76-2.25,0-1.16-.61-2.15-1.72-2.15a1.69,1.69,0,0,0-1.6,1.3,2.14,2.14,0,0,0-.07.43Z" transform="translate(-170.15 -139.59)"/><path class="cls-3" d="M525.62,281.22c0-.74,0-1.34,0-1.89h.94l.05,1h0a2.28,2.28,0,0,1,2.06-1.12c1.4,0,2.46,1.18,2.46,2.95,0,2.08-1.27,3.12-2.64,3.12a2,2,0,0,1-1.79-.92h0v3.16h-1Zm1,1.55a1.88,1.88,0,0,0,.05.43,1.63,1.63,0,0,0,1.58,1.24c1.11,0,1.76-.91,1.76-2.25,0-1.16-.61-2.15-1.73-2.15a1.68,1.68,0,0,0-1.59,1.3,1.61,1.61,0,0,0-.07.43Z" transform="translate(-170.15 -139.59)"/><path class="cls-3" d="M532.45,281.14c0-.68,0-1.27-.05-1.81h.93l0,1.14h0A1.75,1.75,0,0,1,535,279.2a1.39,1.39,0,0,1,.3,0v1a1.32,1.32,0,0,0-.36,0,1.5,1.5,0,0,0-1.42,1.36,3.47,3.47,0,0,0,0,.49v3.09h-1Z" transform="translate(-170.15 -139.59)"/><path class="cls-3" d="M537.6,277.7a.62.62,0,0,1-.67.65.63.63,0,0,1-.64-.65A.65.65,0,0,1,537,277,.63.63,0,0,1,537.6,277.7Zm-1.18,7.43v-5.8h1.06v5.8Z" transform="translate(-170.15 -139.59)"/><path class="cls-3" d="M539.09,284.05a2.69,2.69,0,0,0,1.39.42c.77,0,1.13-.38,1.13-.86s-.3-.78-1.08-1.07c-1-.37-1.54-.94-1.54-1.64a1.79,1.79,0,0,1,2-1.7,2.79,2.79,0,0,1,1.42.36l-.26.76A2.32,2.32,0,0,0,541,280c-.62,0-1,.36-1,.79s.35.7,1.1,1c1,.39,1.53.89,1.53,1.75,0,1-.8,1.74-2.17,1.74a3.34,3.34,0,0,1-1.64-.39Z" transform="translate(-170.15 -139.59)"/><path class="cls-3" d="M544.57,282.42a1.87,1.87,0,0,0,2,2,3.8,3.8,0,0,0,1.61-.3l.18.75a4.67,4.67,0,0,1-1.93.36,2.69,2.69,0,0,1-2.86-2.92c0-1.75,1-3.13,2.73-3.13a2.46,2.46,0,0,1,2.4,2.73,4.15,4.15,0,0,1,0,.49Zm3.1-.75A1.51,1.51,0,0,0,546.2,280a1.77,1.77,0,0,0-1.62,1.72Z" transform="translate(-170.15 -139.59)"/><path class="cls-3" d="M549.85,284.05a2.69,2.69,0,0,0,1.39.42c.77,0,1.13-.38,1.13-.86s-.3-.78-1.08-1.07c-1-.37-1.53-.94-1.53-1.64a1.78,1.78,0,0,1,2-1.7,2.83,2.83,0,0,1,1.43.36l-.27.76a2.32,2.32,0,0,0-1.19-.33c-.62,0-1,.36-1,.79s.35.7,1.11,1c1,.39,1.52.89,1.52,1.75,0,1-.79,1.74-2.17,1.74a3.3,3.3,0,0,1-1.63-.39Z" transform="translate(-170.15 -139.59)"/><path class="cls-3" d="M557.29,281.22c0-.74,0-1.34,0-1.89h1l0,1h0a2.3,2.3,0,0,1,2.07-1.12c1.4,0,2.45,1.18,2.45,2.95,0,2.08-1.27,3.12-2.63,3.12a2,2,0,0,1-1.79-.92h0v3.16h-1Zm1,1.55a2.68,2.68,0,0,0,0,.43,1.65,1.65,0,0,0,1.59,1.24c1.11,0,1.76-.91,1.76-2.25,0-1.16-.61-2.15-1.73-2.15a1.67,1.67,0,0,0-1.59,1.3,1.63,1.63,0,0,0-.08.43Z" transform="translate(-170.15 -139.59)"/><path class="cls-3" d="M567.33,285.13l-.08-.73h0a2.14,2.14,0,0,1-1.77.87,1.66,1.66,0,0,1-1.78-1.67c0-1.41,1.25-2.17,3.49-2.16v-.12a1.19,1.19,0,0,0-1.32-1.34,2.84,2.84,0,0,0-1.51.43l-.24-.7a3.63,3.63,0,0,1,1.91-.51c1.78,0,2.21,1.21,2.21,2.37v2.17a8.32,8.32,0,0,0,.09,1.39Zm-.15-3c-1.15,0-2.46.18-2.46,1.31a.93.93,0,0,0,1,1,1.45,1.45,0,0,0,1.41-1,1.2,1.2,0,0,0,.06-.33Z" transform="translate(-170.15 -139.59)"/><path class="cls-3" d="M569.9,281.14c0-.68,0-1.27,0-1.81h.92l0,1.14h0a1.75,1.75,0,0,1,1.61-1.27,1.39,1.39,0,0,1,.3,0v1a1.32,1.32,0,0,0-.36,0,1.48,1.48,0,0,0-1.41,1.36,2.38,2.38,0,0,0,0,.49v3.09H569.9Z" transform="translate(-170.15 -139.59)"/><path class="cls-3" d="M581.38,276.62v7c0,.52,0,1.11,0,1.5h-.94l0-1h0a2.16,2.16,0,0,1-2,1.14c-1.4,0-2.48-1.19-2.48-3,0-1.93,1.19-3.11,2.6-3.11a2,2,0,0,1,1.76.88h0v-3.46Zm-1,5.07a1.65,1.65,0,0,0-.05-.44,1.55,1.55,0,0,0-1.52-1.23c-1.09,0-1.74,1-1.74,2.25s.57,2.14,1.71,2.14a1.67,1.67,0,0,0,1.6-1.71Z" transform="translate(-170.15 -139.59)"/><path class="cls-3" d="M583.73,282.42a1.86,1.86,0,0,0,2,2,3.83,3.83,0,0,0,1.61-.3l.17.75a4.63,4.63,0,0,1-1.93.36,2.69,2.69,0,0,1-2.85-2.92c0-1.75,1-3.13,2.72-3.13a2.45,2.45,0,0,1,2.4,2.73,2.72,2.72,0,0,1,0,.49Zm3.09-.75a1.51,1.51,0,0,0-1.46-1.72,1.75,1.75,0,0,0-1.62,1.72Z" transform="translate(-170.15 -139.59)"/><path class="cls-3" d="M422,295.3c0-.6,0-1.09-.05-1.57h.93l.06,1h0a2.14,2.14,0,0,1,1.92-1.09c.8,0,2.05.48,2.05,2.47v3.46h-1.06v-3.34c0-.94-.35-1.72-1.34-1.72a1.5,1.5,0,0,0-1.42,1.08,1.75,1.75,0,0,0-.07.49v3.49H422Z" transform="translate(-170.15 -139.59)"/><path class="cls-3" d="M433.86,296.58a2.84,2.84,0,0,1-2.89,3.09,2.76,2.76,0,0,1-2.78-3,2.83,2.83,0,0,1,2.87-3.08A2.75,2.75,0,0,1,433.86,296.58Zm-4.61.06c0,1.27.73,2.23,1.77,2.23s1.76-.94,1.76-2.25c0-1-.49-2.23-1.74-2.23S429.25,295.54,429.25,296.64Z" transform="translate(-170.15 -139.59)"/><path class="cls-3" d="M435.19,295.3c0-.6,0-1.09,0-1.57h.92l.05.93h0A2,2,0,0,1,438,293.6a1.71,1.71,0,0,1,1.64,1.16h0a2.58,2.58,0,0,1,.65-.76,2,2,0,0,1,1.28-.4c.77,0,1.91.5,1.91,2.52v3.41h-1v-3.28c0-1.12-.41-1.79-1.26-1.79a1.36,1.36,0,0,0-1.25,1,1.69,1.69,0,0,0-.08.53v3.58h-1v-3.47c0-.93-.41-1.6-1.21-1.6a1.45,1.45,0,0,0-1.31,1.06,1.4,1.4,0,0,0-.09.51v3.5h-1Z" transform="translate(-170.15 -139.59)"/><path class="cls-3" d="M445.15,299.53c0-.39.05-1,.05-1.5v-7h1v3.64h0a2.17,2.17,0,0,1,2-1.06c1.44,0,2.46,1.2,2.44,3,0,2.07-1.3,3.11-2.6,3.11a2.06,2.06,0,0,1-1.94-1.1h0l-.05,1Zm1.09-2.32a2.32,2.32,0,0,0,.05.38,1.65,1.65,0,0,0,1.59,1.24c1.1,0,1.76-.9,1.76-2.23,0-1.17-.6-2.16-1.73-2.16a1.69,1.69,0,0,0-1.61,1.29,2.47,2.47,0,0,0-.06.43Z" transform="translate(-170.15 -139.59)"/><path class="cls-3" d="M452,295.54c0-.68,0-1.27,0-1.81h.92l0,1.14H453a1.74,1.74,0,0,1,1.6-1.27,1.32,1.32,0,0,1,.3,0v1a1.2,1.2,0,0,0-.35,0,1.48,1.48,0,0,0-1.42,1.36,3.37,3.37,0,0,0-.05.49v3.09h-1Z" transform="translate(-170.15 -139.59)"/><path class="cls-3" d="M456.42,296.82a1.86,1.86,0,0,0,2,2,3.8,3.8,0,0,0,1.61-.3l.18.75a4.67,4.67,0,0,1-1.93.36,2.69,2.69,0,0,1-2.86-2.92c0-1.75,1-3.13,2.72-3.13a2.45,2.45,0,0,1,2.4,2.73,4.49,4.49,0,0,1,0,.49Zm3.09-.75a1.5,1.5,0,0,0-1.46-1.72,1.76,1.76,0,0,0-1.62,1.72Z" transform="translate(-170.15 -139.59)"/><path class="cls-3" d="M466.7,298c0,.6,0,1.13.05,1.58h-.94l-.06-.94h0a2.21,2.21,0,0,1-1.92,1.08c-.91,0-2-.51-2-2.55v-3.39h1.05v3.21c0,1.11.34,1.85,1.3,1.85a1.52,1.52,0,0,0,1.39-1,1.57,1.57,0,0,0,.1-.54v-3.56h1.05Z" transform="translate(-170.15 -139.59)"/><path class="cls-3" d="M469,293.73l.83,1.25c.21.32.39.62.58.94h0c.19-.34.38-.64.57-1l.82-1.23h1.14l-2,2.81,2,3h-1.2l-.85-1.3c-.23-.34-.42-.66-.63-1h0c-.19.35-.39.66-.61,1l-.84,1.3h-1.16l2.06-3-2-2.84Z" transform="translate(-170.15 -139.59)"/><path class="cls-3" d="M476.56,295.3c0-.6,0-1.09-.05-1.57h.92l.05.93h0a2,2,0,0,1,1.82-1.06,1.71,1.71,0,0,1,1.64,1.16h0a2.56,2.56,0,0,1,.64-.76,2,2,0,0,1,1.29-.4c.76,0,1.9.5,1.9,2.52v3.41h-1v-3.28c0-1.12-.41-1.79-1.26-1.79a1.35,1.35,0,0,0-1.24,1,1.68,1.68,0,0,0-.09.53v3.58h-1v-3.47c0-.93-.41-1.6-1.21-1.6a1.45,1.45,0,0,0-1.31,1.06,1.4,1.4,0,0,0-.08.51v3.5h-1Z" transform="translate(-170.15 -139.59)"/><path class="cls-3" d="M491.42,298c0,.6,0,1.13.05,1.58h-.94l-.06-.94h0a2.21,2.21,0,0,1-1.92,1.08c-.91,0-2-.51-2-2.55v-3.39h1.05v3.21c0,1.11.34,1.85,1.3,1.85a1.52,1.52,0,0,0,1.39-1,1.57,1.57,0,0,0,.1-.54v-3.56h1.05Z" transform="translate(-170.15 -139.59)"/><path class="cls-3" d="M493,298.45a2.72,2.72,0,0,0,1.39.42c.77,0,1.13-.38,1.13-.86s-.3-.78-1.08-1.07c-1-.37-1.53-.94-1.53-1.64a1.78,1.78,0,0,1,2-1.7,2.94,2.94,0,0,1,1.43.36l-.27.76a2.25,2.25,0,0,0-1.18-.33c-.63,0-1,.36-1,.79s.35.7,1.11,1c1,.39,1.52.89,1.52,1.75,0,1-.79,1.74-2.17,1.74a3.3,3.3,0,0,1-1.63-.39Z" transform="translate(-170.15 -139.59)"/><path class="cls-3" d="M499.1,292.1a.62.62,0,0,1-.67.65.63.63,0,0,1-.63-.65.64.64,0,0,1,.66-.66A.62.62,0,0,1,499.1,292.1Zm-1.17,7.43v-5.8H499v5.8Z" transform="translate(-170.15 -139.59)"/><path class="cls-3" d="M504.87,299.32a3.9,3.9,0,0,1-1.66.33,2.75,2.75,0,0,1-2.89-3,2.94,2.94,0,0,1,3.11-3.08,3.61,3.61,0,0,1,1.47.3l-.24.81a2.51,2.51,0,0,0-1.23-.27,2.19,2.19,0,0,0,0,4.36,3,3,0,0,0,1.29-.28Z" transform="translate(-170.15 -139.59)"/><path class="cls-3" d="M507.29,292.1a.66.66,0,0,1-1.31,0,.65.65,0,0,1,.66-.66A.63.63,0,0,1,507.29,292.1Zm-1.18,7.43v-5.8h1.06v5.8Z" transform="translate(-170.15 -139.59)"/><path class="cls-3" d="M509.51,296.82a1.86,1.86,0,0,0,2,2,3.83,3.83,0,0,0,1.61-.3l.18.75a4.72,4.72,0,0,1-1.94.36,2.69,2.69,0,0,1-2.85-2.92c0-1.75,1-3.13,2.72-3.13a2.45,2.45,0,0,1,2.4,2.73,2.63,2.63,0,0,1,0,.49Zm3.09-.75a1.5,1.5,0,0,0-1.46-1.72,1.75,1.75,0,0,0-1.62,1.72Z" transform="translate(-170.15 -139.59)"/><path class="cls-3" d="M514.93,295.3c0-.6,0-1.09,0-1.57h.94l.06,1h0a2.14,2.14,0,0,1,1.92-1.09c.8,0,2,.48,2,2.47v3.46h-1v-3.34c0-.94-.35-1.72-1.35-1.72a1.5,1.5,0,0,0-1.41,1.08,1.45,1.45,0,0,0-.07.49v3.49h-1.06Z" transform="translate(-170.15 -139.59)"/><path class="cls-3" d="M521.45,298.45a2.69,2.69,0,0,0,1.39.42c.77,0,1.13-.38,1.13-.86s-.3-.78-1.08-1.07c-1-.37-1.54-.94-1.54-1.64a1.79,1.79,0,0,1,2-1.7,2.91,2.91,0,0,1,1.43.36l-.26.76a2.32,2.32,0,0,0-1.19-.33c-.62,0-1,.36-1,.79s.35.7,1.1,1c1,.39,1.53.89,1.53,1.75,0,1-.8,1.74-2.18,1.74a3.33,3.33,0,0,1-1.63-.39Z" transform="translate(-170.15 -139.59)"/><path class="cls-3" d="M529.47,296.82a1.87,1.87,0,0,0,2,2,3.75,3.75,0,0,0,1.6-.3l.18.75a4.63,4.63,0,0,1-1.93.36,2.69,2.69,0,0,1-2.85-2.92c0-1.75,1-3.13,2.72-3.13a2.46,2.46,0,0,1,2.4,2.73,4,4,0,0,1,0,.49Zm3.1-.75a1.51,1.51,0,0,0-1.46-1.72,1.75,1.75,0,0,0-1.62,1.72Z" transform="translate(-170.15 -139.59)"/><path class="cls-3" d="M534.9,295.3c0-.6,0-1.09,0-1.57h.94l.06,1h0a2.14,2.14,0,0,1,1.92-1.09c.8,0,2.05.48,2.05,2.47v3.46h-1.05v-3.34c0-.94-.35-1.72-1.35-1.72a1.5,1.5,0,0,0-1.41,1.08,1.44,1.44,0,0,0-.08.49v3.49H534.9Z" transform="translate(-170.15 -139.59)"/><path class="cls-3" d="M544.1,291h1.06v3.62h0a1.93,1.93,0,0,1,.76-.74,2.16,2.16,0,0,1,1.08-.3c.78,0,2,.48,2,2.48v3.45h-1V296.2c0-.94-.35-1.73-1.34-1.73a1.51,1.51,0,0,0-1.42,1.06,1.26,1.26,0,0,0-.07.5v3.5H544.1Z" transform="translate(-170.15 -139.59)"/><path class="cls-3" d="M551.35,296.82a1.87,1.87,0,0,0,2,2,3.8,3.8,0,0,0,1.61-.3l.18.75a4.67,4.67,0,0,1-1.93.36,2.69,2.69,0,0,1-2.86-2.92c0-1.75,1-3.13,2.73-3.13a2.45,2.45,0,0,1,2.39,2.73,4.49,4.49,0,0,1,0,.49Zm3.1-.75a1.51,1.51,0,0,0-1.47-1.72,1.77,1.77,0,0,0-1.62,1.72Z" transform="translate(-170.15 -139.59)"/><path class="cls-3" d="M556.78,295.54c0-.68,0-1.27,0-1.81h.92l0,1.14h0a1.75,1.75,0,0,1,1.61-1.27,1.32,1.32,0,0,1,.3,0v1a1.28,1.28,0,0,0-.36,0,1.48,1.48,0,0,0-1.41,1.36,2.38,2.38,0,0,0,0,.49v3.09h-1Z" transform="translate(-170.15 -139.59)"/><path class="cls-3" d="M560.7,299.53c0-.39,0-1,0-1.5v-7h1v3.64h0a2.19,2.19,0,0,1,2-1.06c1.44,0,2.46,1.2,2.45,3,0,2.07-1.31,3.11-2.6,3.11a2.09,2.09,0,0,1-1.95-1.1h0l0,1Zm1.09-2.32a1.58,1.58,0,0,0,.05.38,1.63,1.63,0,0,0,1.58,1.24c1.1,0,1.76-.9,1.76-2.23,0-1.17-.6-2.16-1.72-2.16a1.69,1.69,0,0,0-1.61,1.29,2.47,2.47,0,0,0-.06.43Z" transform="translate(-170.15 -139.59)"/><path class="cls-3" d="M568.16,296.82a1.87,1.87,0,0,0,2,2,3.8,3.8,0,0,0,1.61-.3l.18.75a4.67,4.67,0,0,1-1.93.36,2.69,2.69,0,0,1-2.85-2.92c0-1.75,1-3.13,2.72-3.13a2.46,2.46,0,0,1,2.4,2.73,4,4,0,0,1,0,.49Zm3.1-.75a1.51,1.51,0,0,0-1.47-1.72,1.77,1.77,0,0,0-1.62,1.72Z" transform="translate(-170.15 -139.59)"/><path class="cls-3" d="M575.93,298.92a.7.7,0,0,1,.7-.74.69.69,0,0,1,.71.74.71.71,0,1,1-1.41,0Zm.3-1.71-.17-5.76h1.15l-.17,5.76Z" transform="translate(-170.15 -139.59)"/></svg>