<svg id="Calque_1" data-name="Calque 1" xmlns="http://www.w3.org/2000/svg" xmlns:xlink="http://www.w3.org/1999/xlink" viewBox="0 0 413.51 195.62"><defs><style>.cls-1{fill:#203359;}.cls-2{fill:#fff;}.cls-3,.cls-4{fill:#ea5454;}.cls-3{stroke:#d9a33e;}.cls-10,.cls-3,.cls-9{stroke-miterlimit:10;}.cls-10,.cls-5{fill:#d9a33e;}.cls-6{fill:#213359;}.cls-7{fill:#c99d66;}.cls-8{fill:#1d1d1b;}.cls-12,.cls-9{fill:#dacb9d;}.cls-10,.cls-9{stroke:#1d1d1b;}.cls-10{stroke-width:0.5px;}.cls-11{fill:#7e4e24;}</style></defs><rect class="cls-1" width="413.51" height="176.35" rx="12"/><rect class="cls-2" x="45.24" y="44.51" width="87.11" height="91.85" rx="12"/><image width="400" height="400" transform="translate(179.11 101.99) scale(0.23)" xlink:href="../../../../Pictures/5a902dbf7f96951c82922875.png"/><image width="1200" height="600" transform="translate(272.74 125.57) scale(0.08)" xlink:href="../../../../Pictures/App-Store-Logo_0.png"/><path class="cls-2" d="M417.76,207.74h-6.64v-2.4h16.16v2.4h-6.67v19.43h-2.85Z" transform="translate(-217.35 -159.68)"/><path class="cls-2" d="M428.9,219.85c.06,3.85,2.52,5.44,5.37,5.44a10.37,10.37,0,0,0,4.34-.81l.48,2a12.7,12.7,0,0,1-5.21,1c-4.82,0-7.7-3.17-7.7-7.9s2.78-8.45,7.35-8.45c5.11,0,6.47,4.5,6.47,7.38a9.38,9.38,0,0,1-.1,1.33Zm8.35-2c0-1.81-.75-4.63-3.95-4.63-2.88,0-4.15,2.65-4.37,4.63Zm.68-13.08L434,209.36h-2l2.85-4.63Z" transform="translate(-217.35 -159.68)"/><path class="cls-2" d="M443.53,204.18h2.85v23h-2.85Z" transform="translate(-217.35 -159.68)"/><path class="cls-2" d="M452.75,219.85c.07,3.85,2.53,5.44,5.38,5.44a10.37,10.37,0,0,0,4.34-.81l.48,2a12.73,12.73,0,0,1-5.21,1c-4.82,0-7.7-3.17-7.7-7.9s2.78-8.45,7.34-8.45c5.12,0,6.48,4.5,6.48,7.38a9.38,9.38,0,0,1-.1,1.33Zm8.36-2c0-1.81-.75-4.63-3.95-4.63-2.88,0-4.15,2.65-4.37,4.63Zm.68-13.08-4,4.63h-2l2.85-4.63Z" transform="translate(-217.35 -159.68)"/><path class="cls-2" d="M478.56,226.58a10.5,10.5,0,0,1-4.5.91c-4.73,0-7.81-3.21-7.81-8s3.31-8.32,8.42-8.32a9.45,9.45,0,0,1,3.95.81l-.64,2.2a6.61,6.61,0,0,0-3.31-.74c-3.59,0-5.53,2.65-5.53,5.92,0,3.63,2.33,5.86,5.44,5.86a8.16,8.16,0,0,0,3.49-.77Z" transform="translate(-217.35 -159.68)"/><path class="cls-2" d="M481.89,204.18h2.85V214h.07a5.19,5.19,0,0,1,2-2,5.8,5.8,0,0,1,2.91-.81c2.11,0,5.47,1.29,5.47,6.7v9.33h-2.85v-9c0-2.53-.94-4.67-3.62-4.67a4.1,4.1,0,0,0-3.82,2.85,3.31,3.31,0,0,0-.2,1.36v9.46h-2.85Z" transform="translate(-217.35 -159.68)"/><path class="cls-2" d="M508.54,227.17l-.23-2h-.1a5.82,5.82,0,0,1-4.79,2.33,4.46,4.46,0,0,1-4.79-4.5c0-3.79,3.37-5.86,9.42-5.83v-.32c0-1.3-.35-3.63-3.56-3.63a7.82,7.82,0,0,0-4.08,1.17l-.65-1.88a9.78,9.78,0,0,1,5.15-1.39c4.79,0,6,3.27,6,6.41v5.86a21.55,21.55,0,0,0,.26,3.76Zm-.42-8c-3.11-.07-6.64.48-6.64,3.53a2.52,2.52,0,0,0,2.69,2.72A3.92,3.92,0,0,0,508,222.8a3.29,3.29,0,0,0,.16-.91Z" transform="translate(-217.35 -159.68)"/><path class="cls-2" d="M515.46,216.38c0-1.84,0-3.43-.12-4.88h2.49l.1,3.07h.13a4.69,4.69,0,0,1,4.33-3.43,2.85,2.85,0,0,1,.81.1v2.68a4.57,4.57,0,0,0-1-.09c-2,0-3.43,1.52-3.82,3.66a8.43,8.43,0,0,0-.13,1.32v8.36h-2.82Z" transform="translate(-217.35 -159.68)"/><path class="cls-2" d="M539.3,211.5c-.07,1.13-.13,2.39-.13,4.3v9.1c0,3.59-.72,5.8-2.24,7.16a8.32,8.32,0,0,1-5.7,1.87,10.13,10.13,0,0,1-5.21-1.29l.71-2.17a8.84,8.84,0,0,0,4.6,1.23c2.91,0,5-1.52,5-5.47v-1.75h-.06a5.6,5.6,0,0,1-5,2.62c-3.89,0-6.67-3.3-6.67-7.64,0-5.31,3.46-8.32,7.06-8.32a5.21,5.21,0,0,1,4.89,2.72h.06l.13-2.36Zm-2.95,6.18a4.07,4.07,0,0,0-.16-1.3,4.11,4.11,0,0,0-4-3c-2.72,0-4.66,2.3-4.66,5.93,0,3.07,1.56,5.63,4.63,5.63a4.16,4.16,0,0,0,4-2.91,5.06,5.06,0,0,0,.23-1.52Z" transform="translate(-217.35 -159.68)"/><path class="cls-2" d="M545.48,219.85c.06,3.85,2.52,5.44,5.37,5.44a10.37,10.37,0,0,0,4.34-.81l.49,2a12.79,12.79,0,0,1-5.22,1c-4.82,0-7.7-3.17-7.7-7.9s2.78-8.45,7.35-8.45c5.11,0,6.47,4.5,6.47,7.38a11.66,11.66,0,0,1-.09,1.33Zm8.35-2c0-1.81-.74-4.63-4-4.63-2.88,0-4.14,2.65-4.37,4.63Z" transform="translate(-217.35 -159.68)"/><path class="cls-2" d="M560.11,216.38c0-1.84,0-3.43-.13-4.88h2.49l.1,3.07h.13a4.71,4.71,0,0,1,4.34-3.43,2.9,2.9,0,0,1,.81.1v2.68a4.57,4.57,0,0,0-1-.09c-2,0-3.43,1.52-3.82,3.66a7.37,7.37,0,0,0-.13,1.32v8.36h-2.82Z" transform="translate(-217.35 -159.68)"/><path class="cls-2" d="M409.29,243h2.85v23h-2.85Z" transform="translate(-217.35 -159.68)"/><path class="cls-2" d="M420.72,243.84a37.44,37.44,0,0,1-3,7.67l-1.82.23a44.55,44.55,0,0,0,1.91-7.61Z" transform="translate(-217.35 -159.68)"/><path class="cls-2" d="M431.92,266l-.22-2h-.1a5.85,5.85,0,0,1-4.79,2.33,4.47,4.47,0,0,1-4.8-4.5c0-3.79,3.37-5.86,9.43-5.83v-.32c0-1.29-.36-3.63-3.56-3.63a7.82,7.82,0,0,0-4.08,1.17l-.65-1.88A9.72,9.72,0,0,1,428.3,250c4.79,0,5.95,3.27,5.95,6.41v5.86a22.57,22.57,0,0,0,.26,3.76Zm-.42-8c-3.11-.07-6.64.49-6.64,3.53a2.52,2.52,0,0,0,2.69,2.72,3.91,3.91,0,0,0,3.79-2.62,3,3,0,0,0,.16-.91Z" transform="translate(-217.35 -159.68)"/><path class="cls-2" d="M438.85,255.46c0-2-.06-3.63-.13-5.11h2.56l.13,2.68h.06a6.16,6.16,0,0,1,5.57-3c3.79,0,6.64,3.2,6.64,8,0,5.64-3.43,8.42-7.12,8.42a5.48,5.48,0,0,1-4.83-2.46h-.06v8.52h-2.82Zm2.82,4.18a5.88,5.88,0,0,0,.13,1.16,4.38,4.38,0,0,0,4.27,3.34c3,0,4.76-2.46,4.76-6.06,0-3.14-1.65-5.82-4.66-5.82a4.54,4.54,0,0,0-4.31,3.53,4.4,4.4,0,0,0-.19,1.16Z" transform="translate(-217.35 -159.68)"/><path class="cls-2" d="M457.27,255.46c0-2-.06-3.63-.13-5.11h2.56l.13,2.68h.06a6.17,6.17,0,0,1,5.57-3c3.79,0,6.64,3.2,6.64,8,0,5.64-3.43,8.42-7.12,8.42a5.5,5.5,0,0,1-4.83-2.46h-.06v8.52h-2.82Zm2.82,4.18a5.88,5.88,0,0,0,.13,1.16,4.39,4.39,0,0,0,4.27,3.34c3,0,4.76-2.46,4.76-6.06,0-3.14-1.65-5.82-4.66-5.82a4.55,4.55,0,0,0-4.31,3.53,4.4,4.4,0,0,0-.19,1.16Z" transform="translate(-217.35 -159.68)"/><path class="cls-2" d="M475.69,243h2.85v23h-2.85Z" transform="translate(-217.35 -159.68)"/><path class="cls-2" d="M486.51,245.94a1.77,1.77,0,0,1-3.53,0,1.73,1.73,0,0,1,1.78-1.78A1.69,1.69,0,0,1,486.51,245.94ZM483.33,266V250.35h2.85V266Z" transform="translate(-217.35 -159.68)"/><path class="cls-2" d="M502.08,265.43a10.5,10.5,0,0,1-4.5.91c-4.73,0-7.8-3.2-7.8-8s3.3-8.32,8.41-8.32a9.45,9.45,0,0,1,3.95.81l-.64,2.2a6.61,6.61,0,0,0-3.31-.74c-3.59,0-5.53,2.65-5.53,5.92,0,3.63,2.33,5.86,5.44,5.86a8.16,8.16,0,0,0,3.49-.77Z" transform="translate(-217.35 -159.68)"/><path class="cls-2" d="M514.09,266l-.23-2h-.09a5.85,5.85,0,0,1-4.8,2.33,4.46,4.46,0,0,1-4.79-4.5c0-3.79,3.37-5.86,9.42-5.83v-.32c0-1.29-.35-3.63-3.56-3.63a7.85,7.85,0,0,0-4.08,1.17l-.64-1.88a9.71,9.71,0,0,1,5.14-1.39c4.8,0,6,3.27,6,6.41v5.86a22.57,22.57,0,0,0,.26,3.76Zm-.42-8c-3.11-.07-6.64.49-6.64,3.53a2.52,2.52,0,0,0,2.69,2.72,3.92,3.92,0,0,0,3.79-2.62,3.29,3.29,0,0,0,.16-.91Z" transform="translate(-217.35 -159.68)"/><path class="cls-2" d="M524.32,245.84v4.51h4.08v2.17h-4.08V261c0,1.94.55,3,2.14,3a6.76,6.76,0,0,0,1.65-.19l.13,2.13a6.93,6.93,0,0,1-2.53.39,3.92,3.92,0,0,1-3.07-1.2c-.81-.84-1.1-2.23-1.1-4.08v-8.54h-2.43v-2.17h2.43v-3.76Z" transform="translate(-217.35 -159.68)"/><path class="cls-2" d="M534.78,245.94a1.77,1.77,0,0,1-3.53,0,1.73,1.73,0,0,1,1.78-1.78A1.69,1.69,0,0,1,534.78,245.94ZM531.6,266V250.35h2.85V266Z" transform="translate(-217.35 -159.68)"/><path class="cls-2" d="M553.36,258.05c0,5.8-4,8.32-7.8,8.32-4.24,0-7.51-3.11-7.51-8.06,0-5.24,3.43-8.32,7.77-8.32C550.32,250,553.36,253.26,553.36,258.05Zm-12.43.16c0,3.44,2,6,4.76,6s4.76-2.56,4.76-6.09c0-2.66-1.33-6-4.7-6S540.93,255.23,540.93,258.21Z" transform="translate(-217.35 -159.68)"/><path class="cls-2" d="M557,254.59c0-1.62,0-3-.13-4.24h2.53l.16,2.59h.07a5.75,5.75,0,0,1,5.18-2.95c2.17,0,5.53,1.29,5.53,6.67V266h-2.85v-9c0-2.52-.94-4.63-3.62-4.63a4.21,4.21,0,0,0-4,4.24V266H557Z" transform="translate(-217.35 -159.68)"/><path class="cls-3" d="M335.44,255.55a8.9,8.9,0,1,1-17.79,0c0-5.07,3.76-6.29,8.67-6.29S335.44,250.48,335.44,255.55Z" transform="translate(-217.35 -159.68)"/><path class="cls-3" d="M290.49,261.22h0Z" transform="translate(-217.35 -159.68)"/><path class="cls-3" d="M296.06,255.31a8.79,8.79,0,1,1-17.58,0c0-5,4.37-6.92,9.22-6.92S296.06,250.3,296.06,255.31Z" transform="translate(-217.35 -159.68)"/><path class="cls-3" d="M323.22,249.54c-17.26,5-32.93-.93-32.93-.93l.84,20.95L327,264.72Z" transform="translate(-217.35 -159.68)"/><polyline class="cls-3" points="61.53 98.54 76.27 134.46 105.05 134.46 116.93 100.43"/><path class="cls-4" d="M295.2,253.87a32.94,32.94,0,0,1,5.39,4.76" transform="translate(-217.35 -159.68)"/><path class="cls-5" d="M293.94,256l1.1.8-.51-.39a35,35,0,0,1,4.3,4,2.5,2.5,0,0,0,3.53,0,2.55,2.55,0,0,0,0-3.54,37,37,0,0,0-5.89-5.15,2.51,2.51,0,0,0-3.68,2.82l.26.6a2.56,2.56,0,0,0,.89.9Z" transform="translate(-217.35 -159.68)"/><path class="cls-4" d="M322.09,260.1a51,51,0,0,1-19.49,3,9.37,9.37,0,0,1-3-.47,19.59,19.59,0,0,1-2.43-1.3,12.08,12.08,0,0,0-7.26-1.42" transform="translate(-217.35 -159.68)"/><path class="cls-5" d="M318.76,248.05A53,53,0,0,1,308,250.67l3.32-.45a44.89,44.89,0,0,1-10,.3l3.32.45a8.07,8.07,0,0,1-2-.53l3,1.26a51.12,51.12,0,0,0-7.36-3.39,28.79,28.79,0,0,0-5.37-.88,14.15,14.15,0,0,0-2.91,0,9.37,9.37,0,0,0-4.81,1.07,9.49,9.49,0,0,0-4,2.59,12.51,12.51,0,0,0,0,17.68c2.3,2.11,5.6,4,8.84,3.66a13.48,13.48,0,0,1,2.91,0l-3.32-.45a13.82,13.82,0,0,1,3.22.87l-3-1.26c1,.43,1.89,1,2.85,1.53a20.71,20.71,0,0,0,8.7,2.4,42.55,42.55,0,0,0,7.05,0,64.79,64.79,0,0,0,17.05-3.37,13.41,13.41,0,0,0,7.47-5.75,12.49,12.49,0,0,0-4.49-17.1c-2.84-1.5-6.48-2.39-9.63-1.26Z" transform="translate(-217.35 -159.68)"/><path class="cls-6" d="M325.64,234.85s-32.6,19.32-36.28,3.94c0,0-.92-6.3,1-4.64s4.41-3.51,2.33-3.58-5.08-2.37-3.08-3.36,5.46-2.65,3.1-3.85-3.57-4.19-1.93-4.23,27.2-5.25,30.14,4.47S325.64,234.85,325.64,234.85Z" transform="translate(-217.35 -159.68)"/><ellipse class="cls-7" cx="88.8" cy="69.36" rx="12.66" ry="14.02"/><path class="cls-8" d="M309.44,229a10.3,10.3,0,0,1,.55-.9s.26-.35.18-.25l.18-.21a5.39,5.39,0,0,1,.54-.53L311,227c.1-.09.09-.07-.06,0a1.67,1.67,0,0,1,.26-.17l.25-.14c.25-.14,0,0-.05,0a3.35,3.35,0,0,1,.47-.14l.16,0c-.29.13-.25,0-.07,0h.36c.38,0-.3-.07,0,0l.24.06a1.66,1.66,0,0,1,.21.06c.09,0,.4.17.14,0l.36.2s.28.23.08.06a5.85,5.85,0,0,1,.61.61c.19.21-.07-.13.07.08l.22.35.18.35c-.15-.3,0,0,0,.11a1.25,1.25,0,0,0,2.41-.66,5.41,5.41,0,0,0-3.66-3.61,4.27,4.27,0,0,0-3.52.64,8.49,8.49,0,0,0-2.39,2.83,1.25,1.25,0,0,0,2.16,1.26Z" transform="translate(-217.35 -159.68)"/><path class="cls-8" d="M305.39,227.74c-.86-1.54-2.17-3.2-4-3.53a4.49,4.49,0,0,0-3.34.71,5.84,5.84,0,0,0-2.21,3,1.25,1.25,0,1,0,2.41.66c0-.07.18-.41,0-.11l.18-.35.19-.3a1.13,1.13,0,0,1,.1-.13h0a5.85,5.85,0,0,1,.61-.61c-.16.14,0,0,.08,0a3.24,3.24,0,0,1,.36-.2c-.26.13.05,0,.14,0l.21-.06.24-.06c.32-.06-.36,0,0,0h.36c.05,0,.3,0,0,0s0,0,0,0a4.65,4.65,0,0,1,.47.14s-.32-.16-.05,0l.25.14a2,2,0,0,1,.26.18l-.09-.07.1.08a5.39,5.39,0,0,1,.54.53l.21.25c-.17-.2.12.17.15.21a10.3,10.3,0,0,1,.55.9,1.26,1.26,0,0,0,1.71.45,1.27,1.27,0,0,0,.45-1.71Z" transform="translate(-217.35 -159.68)"/><polygon class="cls-9" points="88.31 131.01 63.61 126.04 59.19 89.53 88.31 94.25 88.31 131.01"/><polygon class="cls-9" points="114.53 125.72 89.61 130.88 89.61 94.12 119.38 88.29 114.53 125.72"/><ellipse class="cls-7" cx="61.69" cy="107.95" rx="3.96" ry="5.26"/><ellipse class="cls-7" cx="115.9" cy="107.46" rx="3.96" ry="5.26"/><rect class="cls-10" x="87.23" y="93.9" width="3.67" height="37.33"/><path class="cls-11" d="M296.11,258.08s-2.35,5-1.21,7.76c.86,2.1-2,2.41-3.39,2.44a1.51,1.51,0,0,1-1.37-.81,1.22,1.22,0,0,1,.47-1.71,3.22,3.22,0,0,1,3-.4s.16-7.69,1.38-7.61S296.11,258.08,296.11,258.08Z" transform="translate(-217.35 -159.68)"/><path class="cls-11" d="M325.44,256.81s-2.35,5-1.21,7.77c.86,2.09-2,2.41-3.39,2.44a1.51,1.51,0,0,1-1.37-.82,1.2,1.2,0,0,1,.47-1.7,3.24,3.24,0,0,1,3-.41s.16-7.68,1.38-7.6S325.44,256.81,325.44,256.81Z" transform="translate(-217.35 -159.68)"/><path class="cls-12" d="M313.27,236.72c0,2.41-4.39,5.18-6.8,5.18s-6.63-2.53-6.63-4.94,4.06-.65,6.47-.65S313.27,234.3,313.27,236.72Z" transform="translate(-217.35 -159.68)"/><path class="cls-6" d="M293.63,226.61s-8.44-3.74-4-7.08,4-5.18,5.26-9.64,5.25-4.3,7.16-3,7,6.21,10.51,4.46,10,1.75,8.92,4.93,1.75,2.71,1.59,8.76-1.75,10.19-3.66,10.83-.16-9.87-4.46-12.58-8.44-7.8-12.1-5.1-2.87,4.46-5.89,4.3S293.63,226.61,293.63,226.61Z" transform="translate(-217.35 -159.68)"/></svg>