<svg id="Enseignant" xmlns="http://www.w3.org/2000/svg" width="150" height="150" viewBox="0 0 180.05 196.78"><defs><style>.cls-1{fill:none;stroke:#ea5655;stroke-width:8px;}.cls-1,.cls-3,.cls-5,.cls-7{stroke-miterlimit:10;}.cls-2{fill:#7d4e24;}.cls-3,.cls-4,.cls-7{fill:#d9a43f;}.cls-3{stroke:#d9a43f;}.cls-5,.cls-9{fill:#dbcb9c;}.cls-5,.cls-7{stroke:#1d1d1b;}.cls-6{fill:#ca9e67;}.cls-7{stroke-width:0.5px;}.cls-8{fill:#1d1d1b;}.cls-10{fill:#eb5b59;opacity:0.51;}</style></defs><g id="Calque_2" data-name="Calque 2"><g id="Calque_1-2" data-name="Calque 1"><rect class="cls-1" x="4" y="4" width="172.05" height="188.78" rx="19.11"/><path class="cls-2" d="M66.07,39.69C63,34.8,70.61,21.63,75.85,21c11.55-1.34,30.54-4.68,42.22,14.22,7.14,11.56-3,16.68,4,32,8.09,17.7,24.16,16.63,28.22,34,1.78,7.61,1.11,18.12-4.22,21.33-3.7,2.23-1.48-.55-2.22,1.11-1.17,2.62,9,3.71,5.77,8.45-1.14,1.66-80.24,46.92-98.22,14.66-8.09-14.52-33.39-34-22-42.66,11.16-8.53,16.9-5.63,20.22-12.89,2.3-5,5.85-4.73,2-20.22-1.7-6.85-4.34-17.49.89-23.56C58.31,40.74,69.34,44.84,66.07,39.69Z"/><path class="cls-3" d="M139.9,116a16.56,16.56,0,1,1-33.1,0c0-9.43,7-11.71,16.14-11.71S139.9,106.6,139.9,116Z"/><path class="cls-3" d="M56.28,126.58h0Z"/><path class="cls-3" d="M66.63,115.57a16.62,16.62,0,0,1-16.35,16.88,16.62,16.62,0,0,1-16.36-16.88c0-9.31,8.13-12.85,17.16-12.85S66.63,106.26,66.63,115.57Z"/><path class="cls-3" d="M117.17,104.85c-32.12,9.23-61.27-1.73-61.27-1.73l1.56,39,66.69-9Z"/><polyline class="cls-3" points="34.68 120.98 62.09 187.82 115.64 187.82 137.75 124.5"/><path class="cls-4" d="M65,112.9a62,62,0,0,1,10,8.86"/><path class="cls-4" d="M63.78,115.06l1.31,1,.37.28c.05,0,.37.29.1.07l.18.14.28.23c.88.69,1.73,1.41,2.57,2.15a62.61,62.61,0,0,1,4.71,4.65,2.53,2.53,0,0,0,3.54,0,2.56,2.56,0,0,0,0-3.54,65.8,65.8,0,0,0-10.54-9.25,2.51,2.51,0,0,0-3.42.9,2.57,2.57,0,0,0,.9,3.42Z"/><path class="cls-4" d="M115.06,124.5a94.8,94.8,0,0,1-36.26,5.6,17.46,17.46,0,0,1-5.52-.87,35.17,35.17,0,0,1-4.52-2.43,22.66,22.66,0,0,0-13.51-2.65"/><path class="cls-4" d="M111.73,112.45a97.68,97.68,0,0,1-20,4.87l3.32-.45a79.09,79.09,0,0,1-18.89.54l3.33.45a14.15,14.15,0,0,1-3.33-.84l3,1.26c-1.45-.64-2.75-1.51-4.13-2.27A38.51,38.51,0,0,0,67.85,113a39.82,39.82,0,0,0-7.59-1.33,23.31,23.31,0,0,0-5,0,9.51,9.51,0,0,0-4.82,1.08,9.46,9.46,0,0,0-4,2.59,12.49,12.49,0,0,0,0,17.67c2.29,2.1,5.61,4,8.84,3.66a24.36,24.36,0,0,1,5.66.06l-3.33-.45a24.53,24.53,0,0,1,5.89,1.63l-3-1.26c1.86.82,3.51,2,5.32,2.88a29.08,29.08,0,0,0,11.27,3A79.62,79.62,0,0,0,90,142.4a107.94,107.94,0,0,0,28.39-5.85,13.31,13.31,0,0,0,7.47-5.74,12.76,12.76,0,0,0,1.26-9.63,12.61,12.61,0,0,0-5.75-7.47c-2.84-1.51-6.48-2.39-9.63-1.26Z"/><polygon class="cls-5" points="84.5 181.4 38.53 172.16 30.31 104.22 84.5 113 84.5 181.4"/><polygon class="cls-5" points="133.27 171.56 86.91 181.16 86.91 112.77 142.31 101.91 133.27 171.56"/><ellipse class="cls-6" cx="34.97" cy="138.49" rx="7.38" ry="9.78"/><ellipse class="cls-6" cx="135.83" cy="137.59" rx="7.38" ry="9.78"/><rect class="cls-7" x="82.49" y="112.35" width="6.82" height="69.45"/><path class="cls-2" d="M66.73,120.73s-4.37,9.33-2.26,14.45c1.6,3.9-3.69,4.48-6.3,4.53a2.77,2.77,0,0,1-2.55-1.51,2.25,2.25,0,0,1,.87-3.17,6,6,0,0,1,5.57-.75s.3-14.3,2.56-14.15S66.73,120.73,66.73,120.73Z"/><path class="cls-2" d="M121.29,118.38s-4.36,9.33-2.25,14.45c1.6,3.9-3.69,4.48-6.31,4.53a2.79,2.79,0,0,1-2.54-1.51,2.24,2.24,0,0,1,.87-3.17,6,6,0,0,1,5.57-.75s.3-14.31,2.56-14.16S121.29,118.38,121.29,118.38Z"/><ellipse class="cls-6" cx="88.07" cy="63.92" rx="23.55" ry="26.09"/><path class="cls-8" d="M93.26,63.24A11.36,11.36,0,0,1,96.85,59a4,4,0,0,1,1.5-.62l.3,0c-.33,0,.09,0,.16,0a3.75,3.75,0,0,1,.67,0l.28,0c-.4,0-.05,0,0,0l.44.1a5.48,5.48,0,0,1,.92.29,6.65,6.65,0,0,1,3.37,3.91c.47,1.54,2.88.88,2.41-.66a9,9,0,0,0-6.06-6,6.87,6.87,0,0,0-5.71,1.08A14.56,14.56,0,0,0,91.1,62c-.78,1.41,1.38,2.67,2.16,1.26Z"/><path class="cls-8" d="M85.73,62.06c-1.46-2.63-3.67-5.53-6.83-6.08a7.35,7.35,0,0,0-5.39,1.21,9.55,9.55,0,0,0-3.61,4.87c-.47,1.54,1.94,2.2,2.41.66a6.64,6.64,0,0,1,3.36-3.91,6.13,6.13,0,0,1,.92-.29l.44-.1c.09,0,.44-.05,0,0a2.85,2.85,0,0,1,.29,0,3.64,3.64,0,0,1,.66,0s.41,0,.23,0,.2,0,.24,0a4,4,0,0,1,1.49.62,11.36,11.36,0,0,1,3.59,4.26c.78,1.41,2.94.15,2.16-1.26Z"/><path class="cls-9" d="M101.32,78.22c0,4.49-8.16,9.63-12.65,9.63s-12.34-4.69-12.34-9.18,7.55-1.21,12-1.21S101.32,73.73,101.32,78.22Z"/><path class="cls-2" d="M62.51,45.92s2.35,7.72,10.23,8.44c9.77.89,11.64,1,16-2.22,6.66-4.89,8.44-21.34,8-24S62.51,45.92,62.51,45.92Z"/><ellipse class="cls-10" cx="101.4" cy="69.92" rx="5.56" ry="2.22"/><ellipse class="cls-10" cx="76.51" cy="70.58" rx="5.56" ry="2.22"/></g></g></svg>