<svg xmlns="http://www.w3.org/2000/svg" viewBox="0 0 406.37 436.6"><defs><style>.cls-1{fill:#fefefe;}</style></defs><g id="Calque_2" data-name="Calque 2"><g id="Calque_1-2" data-name="Calque 1"><path class="cls-1" d="M172.49,155.56q-.11-61.77,0-123.53c0-14.72,8.61-26.7,22-30.75,17.92-5.42,36.72,6.92,39,25.54a49.57,49.57,0,0,1,.34,6.08V111q0,39.7,0,79.41c0,18.32-14.41,32.11-32.7,31.3-14.34-.63-27.29-12.93-28.32-27.21C171.9,181.5,172.51,168.52,172.49,155.56Z"/><path class="cls-1" d="M406.23,239.4c-1.78,45.8-16.73,86.77-45.83,122.33a200.26,200.26,0,0,1-94.09,64.65,203.38,203.38,0,0,1-43.83,9.18c-6.44.63-12.92,1-19.42,1-49.07-.92-93-16.17-130.65-47.94C37.24,359,14.66,321.55,4.65,276.65A195,195,0,0,1,.37,222.11q4.16-68.49,48.54-120.77c5-5.91,10-11.94,16.51-16.33a38.19,38.19,0,0,1,48.82,58.14c-14.86,15.12-26.19,32.41-32,52.81-13.16,46.48-3.87,88.15,28.73,124,19.08,21,43.2,33.47,71.11,38.2A126.57,126.57,0,0,0,322.34,276a124.26,124.26,0,0,0,6.19-59.6c-3.87-28.2-16-52.29-35.87-72.59C274.93,125.71,278.58,97,300.1,83.87c14.92-9.07,34.21-6.65,46.95,6.23,28.06,28.35,46.43,62,54.78,101.07A194.64,194.64,0,0,1,406.23,239.4Z"/><path d="M406.23,239.4c-1.78,45.8-16.73,86.77-45.83,122.33a200.26,200.26,0,0,1-94.09,64.65,203.38,203.38,0,0,1-43.83,9.18c-6.44.63-12.92,1-19.42,1-49.07-.92-93-16.17-130.65-47.94C37.24,359,14.66,321.55,4.65,276.65A195,195,0,0,1,.37,222.11q4.16-68.49,48.54-120.77c5-5.91,10-11.94,16.51-16.33a38.19,38.19,0,0,1,48.82,58.14c-14.86,15.12-26.19,32.41-32,52.81-13.16,46.48-3.87,88.15,28.73,124,19.08,21,43.2,33.47,71.11,38.2A126.57,126.57,0,0,0,322.34,276a124.26,124.26,0,0,0,6.19-59.6c-3.87-28.2-16-52.29-35.87-72.59C274.93,125.71,278.58,97,300.1,83.87c14.92-9.07,34.21-6.65,46.95,6.23,28.06,28.35,46.43,62,54.78,101.07A194.64,194.64,0,0,1,406.23,239.4Z"/><path d="M233.86,32.9V111q0,39.7,0,79.41c0,18.32-14.41,32.11-32.7,31.3-14.34-.63-27.29-12.93-28.32-27.21-.94-12.95-.33-25.93-.35-38.89q-.11-61.77,0-123.53c0-14.72,8.61-26.7,22-30.75,17.92-5.42,36.72,6.92,39,25.54A49.57,49.57,0,0,1,233.86,32.9Z"/></g></g></svg>